<?xml version="1.0" encoding="UTF-8"?>
<svg id="_圖層_1" data-name="圖層_1" xmlns="http://www.w3.org/2000/svg" version="1.1" viewBox="0 0 16 16">
  <!-- Generator: Adobe Illustrator 30.3.0, SVG Export Plug-In . SVG Version: 2.1.3 Build 182)  -->
  <path d="M13.2,16C5.9,16,0,10.1,0,2.8s0-.7,0-1c0-.4,0-.7.2-1,.2-.3.4-.5.7-.6C1.3,0,1.6,0,2.1,0h2.3C4.7,0,4.9,0,5.2.1c.2,0,.5.2.6.4.2.2.3.5.4.8l.9,2.6c.2.4.3.7.2,1,0,.3-.1.6-.3.8-.2.3-.4.4-.8.7l-.5.3c.8,1.4,2,2.6,3.4,3.4l.3-.4c.2-.4.4-.6.7-.8.2-.2.5-.3.8-.3.3,0,.6,0,1,.2l2.6.9c.4.1.6.2.8.4.2.2.4.4.4.6.1.3.1.5.1.9v2.2c0,.5,0,.8-.2,1.1-.1.3-.4.5-.7.7-.3.2-.6.2-1,.2-.3,0-.6,0-1,0ZM1.6,1.6s0,.2,0,.3c0,.3,0,.6,0,.9,0,6.4,5.2,11.6,11.6,11.6s.6,0,.9,0c.1,0,.3,0,.4,0h0s0-.2,0-.4v-2.2c0-.2,0-.3,0-.4,0,0-.1,0-.3,0l-2.6-.9c-.2,0-.3-.1-.4-.1,0,0,0,.2-.2.3l-.7,1.1c-.2.4-.7.5-1,.3-2.3-1-4.1-2.9-5.2-5.2-.2-.4,0-.8.3-1l1.1-.7c.2-.1.3-.2.4-.2,0,0,0-.1-.2-.3l-.9-2.6c0-.2,0-.3-.1-.3,0,0-.1,0-.3,0h-2.3c-.2,0-.4,0-.4,0h0Z"/>
</svg>