<?xml version="1.0" encoding="UTF-8"?>
<svg id="_圖層_1" data-name="圖層_1" xmlns="http://www.w3.org/2000/svg" version="1.1" viewBox="0 0 16 16">
  <path d="M1.75,16c-.97,0-1.75-.78-1.75-1.75V1.75C0,.78.78,0,1.75,0h8.5c.97,0,1.75.78,1.75,1.75v12.5c0,.09,0,.17-.02.25h2.27c.14,0,.25-.11.25-.25v-5.97c0-.08-.04-.16-.11-.21l-1.06-.7c-.34-.23-.44-.7-.21-1.04s.7-.44,1.04-.21h0l1.06.7c.49.32.78.87.78,1.46v5.97c0,.97-.78,1.75-1.75,1.75h-3.5c-.07,0-.13,0-.2-.03-.1.02-.2.03-.3.03h-3c-.41,0-.75-.34-.75-.75v-1.25h-1v1.25c0,.41-.34.75-.75.75H1.75ZM1.5,14.25c0,.14.11.25.25.25h2.25v-1.25c0-.41.34-.75.75-.75h2.5c.41,0,.75.34.75.75v1.25h2.25c.14,0,.25-.11.25-.25V1.75c0-.14-.11-.25-.25-.25H1.75c-.14,0-.25.11-.25.25v12.5ZM3.75,6h.5c.41,0,.75.34.75.75s-.34.75-.75.75h-.5c-.41,0-.75-.34-.75-.75s.34-.75.75-.75ZM3,3.75c0-.41.34-.75.75-.75h.5c.41,0,.75.34.75.75s-.34.75-.75.75h-.5c-.41,0-.75-.34-.75-.75ZM7,6.75c0-.41.34-.75.75-.75h.5c.41,0,.75.34.75.75s-.34.75-.75.75h-.5c-.41,0-.75-.34-.75-.75ZM7.75,3h.5c.41,0,.75.34.75.75s-.34.75-.75.75h-.5c-.41,0-.75-.34-.75-.75s.34-.75.75-.75ZM3,9.75c0-.41.34-.75.75-.75h.5c.41,0,.75.34.75.75s-.34.75-.75.75h-.5c-.41,0-.75-.34-.75-.75ZM7.75,9h.5c.41,0,.75.34.75.75s-.34.75-.75.75h-.5c-.41,0-.75-.34-.75-.75s.34-.75.75-.75Z"/>
</svg>