<?xml version="1.0" encoding="UTF-8"?>
<svg id="_圖層_1" data-name="圖層_1" xmlns="http://www.w3.org/2000/svg" version="1.1" viewBox="0 0 32 32">
  <circle cx="16" cy="16" r="16"/>
  <path d="M20.7,31.3c5.6-1.7,9.9-6.5,11-12.4l-9.7-5.6h-2.9l-8.2-4.7-1.9,3.2,2.5,1.5-3.4,10.8,12.5,7.3Z" style="fill: #00456e;"/>
  <path d="M11.9,10.2c0,1-.8,1.9-1.9,1.9s-1.9-.8-1.9-1.9.8-1.9,1.9-1.9,1.9.8,1.9,1.9ZM11.6,13.3h-3.4v10.8h3.4v-10.8ZM20.8,17.7v6.3h3.4v-7.3c0-1.4-1.4-3.9-3.9-3.9s-3.1,1.5-3.7,1.7v-1.2h-3v10.8h3.5v-6.8c.6-2.1,3.3-2.3,3.6.4Z" style="fill: #fff;"/>
</svg>