<?xml version="1.0" encoding="UTF-8"?>
<svg id="_圖層_1" data-name="圖層_1" xmlns="http://www.w3.org/2000/svg" version="1.1" viewBox="0 0 32 32">
  <circle cx="16" cy="16" r="16"/>
  <path d="M7.7,11.8l1.9,11.9,12.3,7.1c5.9-2.4,10.1-8.1,10.1-14.9s0-1.5-.2-2.3l-9-5.2-10.9-.4-4.3,3.7Z" style="fill: #a6333c;"/>
  <path d="M16,9c2.3,0,2.6,0,3.5,0,.5,0,1.1.1,1.6.3.4.1.7.4,1,.6.3.3.5.6.6,1,.2.5.3,1,.3,1.6,0,.9,0,1.2,0,3.5s0,2.6,0,3.5c0,.5-.1,1.1-.3,1.6-.3.7-.9,1.3-1.6,1.6-.5.2-1,.3-1.6.3-.9,0-1.2,0-3.5,0s-2.6,0-3.5,0c-.5,0-1.1-.1-1.6-.3-.4-.1-.7-.4-1-.6-.3-.3-.5-.6-.6-1-.2-.5-.3-1-.3-1.6,0-.9,0-1.2,0-3.5s0-2.6,0-3.5c0-.5.1-1.1.3-1.6.1-.4.4-.7.6-1,.3-.3.6-.5,1-.6.5-.2,1-.3,1.6-.3.9,0,1.2,0,3.5,0M16,7.4c-2.3,0-2.6,0-3.5,0-.7,0-1.4.1-2.1.4-.6.2-1.1.6-1.5,1-.4.4-.8.9-1,1.5-.2.7-.4,1.4-.4,2.1,0,.9,0,1.2,0,3.5s0,2.6,0,3.5c0,.7.1,1.4.4,2.1.2.6.6,1.1,1,1.5.4.4.9.8,1.5,1,.7.2,1.4.4,2.1.4.9,0,1.2,0,3.5,0s2.6,0,3.5,0c.7,0,1.4-.1,2.1-.4,1.2-.4,2.1-1.4,2.5-2.5.2-.7.4-1.4.4-2.1,0-.9,0-1.2,0-3.5s0-2.6,0-3.5c0-.7-.1-1.4-.4-2.1-.2-.6-.6-1.1-1-1.5-.4-.4-.9-.8-1.5-1-.7-.2-1.4-.4-2.1-.4-.9,0-1.2,0-3.5,0ZM16,11.6c-2.4,0-4.4,2-4.4,4.4s2,4.4,4.4,4.4,4.4-2,4.4-4.4h0c0-2.4-2-4.4-4.4-4.4ZM16,18.9c-1.6,0-2.9-1.3-2.9-2.9,0-1.6,1.3-2.9,2.9-2.9,1.6,0,2.9,1.3,2.9,2.9h0c0,1.6-1.3,2.9-2.9,2.9ZM20.6,10.4c-.6,0-1,.5-1,1s.5,1,1,1c.6,0,1-.5,1-1h0c0-.6-.5-1-1-1Z" style="fill: #fff;"/>
</svg>