<?xml version="1.0" encoding="UTF-8"?>
<svg id="_圖層_1" data-name="圖層_1" xmlns="http://www.w3.org/2000/svg" version="1.1" viewBox="0 0 32 32">
  <circle cx="16" cy="16" r="16"/>
  <path d="M9.5,10.2l-1.3,9.5,2.7,4.6,11.2,6.5c5.8-2.4,9.8-8.1,9.8-14.8s0-1.4-.1-2l-11-6.4-11.3,2.6Z" style="fill: #000;"/>
  <path d="M16,6.3c-5.4,0-9.7,4.4-9.7,9.7s3.1,8.3,7.3,9.4h0c.3-.6,0-1.6.1-2.3-1.1.1-2.1.2-2.7-.3-.5-.3-.5-1-.9-1.6-.4-.5-.9-.5-1-1.1,2-.2,2.1,2.9,4.6,1.8.2-.5.4-1,.7-1.4-3,0-5.3-3-4.1-6.1.2-.4.6-.7.7-1.2-.3-.7-.3-2,.2-2.5,1,.1,1.7.6,2.5,1,1.3-.4,3.3-.4,4.6,0,.8-.4,1.5-1,2.6-1,.4.6.5,1.8.1,2.5,2.3,2.6.4,7.6-3.4,7.3,1,.8.3,3.4.7,4.9h0c4.2-1,7.3-4.8,7.3-9.3s-4.4-9.7-9.7-9.7Z" style="fill: #fff;"/>
</svg>