<svg xmlns="http://www.w3.org/2000/svg" xmlns:xlink="http://www.w3.org/1999/xlink"><symbol id="ico-fb" viewBox="0 0 32 32">
  <circle cx="16" cy="16" r="16"/>
  <path d="M32,15.7l-12.4-7.2-7.2,7.5,4,2.3-2.2,5.2,10.4,6c4.5-2.8,7.4-7.8,7.4-13.5s0-.2,0-.3Z" style="fill: #273e70"/>
  <path d="M19.6,11.1v-2.6h-2.6s-1.3,0-2,.9c-.7.7-.8,1.7-.8,1.7v2.3h-1.8v2.6h1.8v7.5h3.1v-7.5h2.4v-2.6h-2.4v-1.9s0-.1,0-.3c.1-.1.2-.1.2-.1h2.1Z" style="fill: #fff;"/>
</symbol><use xlink:href="#ico-fb" width="32" height="32" y="0"/><view id="ico-fb-view" viewBox="0 0 32 32"/><symbol id="ico-github" viewBox="0 0 32 32">
  <circle cx="16" cy="16" r="16"/>
  <path d="M9.5,10.2l-1.3,9.5,2.7,4.6,11.2,6.5c5.8-2.4,9.8-8.1,9.8-14.8s0-1.4-.1-2l-11-6.4-11.3,2.6Z" style="fill: #000;"/>
  <path d="M16,6.3c-5.4,0-9.7,4.4-9.7,9.7s3.1,8.3,7.3,9.4h0c.3-.6,0-1.6.1-2.3-1.1.1-2.1.2-2.7-.3-.5-.3-.5-1-.9-1.6-.4-.5-.9-.5-1-1.1,2-.2,2.1,2.9,4.6,1.8.2-.5.4-1,.7-1.4-3,0-5.3-3-4.1-6.1.2-.4.6-.7.7-1.2-.3-.7-.3-2,.2-2.5,1,.1,1.7.6,2.5,1,1.3-.4,3.3-.4,4.6,0,.8-.4,1.5-1,2.6-1,.4.6.5,1.8.1,2.5,2.3,2.6.4,7.6-3.4,7.3,1,.8.3,3.4.7,4.9h0c4.2-1,7.3-4.8,7.3-9.3s-4.4-9.7-9.7-9.7Z" style="fill: #fff;"/>
</symbol><use xlink:href="#ico-github" width="32" height="32" y="32"/><view id="ico-github-view" viewBox="0 32 32 32"/><symbol id="ico-house" viewBox="0 0 16 16">
  <path d="M1.75,16c-.97,0-1.75-.78-1.75-1.75V1.75C0,.78.78,0,1.75,0h8.5c.97,0,1.75.78,1.75,1.75v12.5c0,.09,0,.17-.02.25h2.27c.14,0,.25-.11.25-.25v-5.97c0-.08-.04-.16-.11-.21l-1.06-.7c-.34-.23-.44-.7-.21-1.04s.7-.44,1.04-.21h0l1.06.7c.49.32.78.87.78,1.46v5.97c0,.97-.78,1.75-1.75,1.75h-3.5c-.07,0-.13,0-.2-.03-.1.02-.2.03-.3.03h-3c-.41,0-.75-.34-.75-.75v-1.25h-1v1.25c0,.41-.34.75-.75.75H1.75ZM1.5,14.25c0,.14.11.25.25.25h2.25v-1.25c0-.41.34-.75.75-.75h2.5c.41,0,.75.34.75.75v1.25h2.25c.14,0,.25-.11.25-.25V1.75c0-.14-.11-.25-.25-.25H1.75c-.14,0-.25.11-.25.25v12.5ZM3.75,6h.5c.41,0,.75.34.75.75s-.34.75-.75.75h-.5c-.41,0-.75-.34-.75-.75s.34-.75.75-.75ZM3,3.75c0-.41.34-.75.75-.75h.5c.41,0,.75.34.75.75s-.34.75-.75.75h-.5c-.41,0-.75-.34-.75-.75ZM7,6.75c0-.41.34-.75.75-.75h.5c.41,0,.75.34.75.75s-.34.75-.75.75h-.5c-.41,0-.75-.34-.75-.75ZM7.75,3h.5c.41,0,.75.34.75.75s-.34.75-.75.75h-.5c-.41,0-.75-.34-.75-.75s.34-.75.75-.75ZM3,9.75c0-.41.34-.75.75-.75h.5c.41,0,.75.34.75.75s-.34.75-.75.75h-.5c-.41,0-.75-.34-.75-.75ZM7.75,9h.5c.41,0,.75.34.75.75s-.34.75-.75.75h-.5c-.41,0-.75-.34-.75-.75s.34-.75.75-.75Z"/>
</symbol><use xlink:href="#ico-house" width="16" height="16" y="64"/><view id="ico-house-view" viewBox="0 64 16 16"/><symbol id="ico-ig" viewBox="0 0 32 32">
  <circle cx="16" cy="16" r="16"/>
  <path d="M7.7,11.8l1.9,11.9,12.3,7.1c5.9-2.4,10.1-8.1,10.1-14.9s0-1.5-.2-2.3l-9-5.2-10.9-.4-4.3,3.7Z" style="fill: #a6333c;"/>
  <path d="M16,9c2.3,0,2.6,0,3.5,0,.5,0,1.1.1,1.6.3.4.1.7.4,1,.6.3.3.5.6.6,1,.2.5.3,1,.3,1.6,0,.9,0,1.2,0,3.5s0,2.6,0,3.5c0,.5-.1,1.1-.3,1.6-.3.7-.9,1.3-1.6,1.6-.5.2-1,.3-1.6.3-.9,0-1.2,0-3.5,0s-2.6,0-3.5,0c-.5,0-1.1-.1-1.6-.3-.4-.1-.7-.4-1-.6-.3-.3-.5-.6-.6-1-.2-.5-.3-1-.3-1.6,0-.9,0-1.2,0-3.5s0-2.6,0-3.5c0-.5.1-1.1.3-1.6.1-.4.4-.7.6-1,.3-.3.6-.5,1-.6.5-.2,1-.3,1.6-.3.9,0,1.2,0,3.5,0M16,7.4c-2.3,0-2.6,0-3.5,0-.7,0-1.4.1-2.1.4-.6.2-1.1.6-1.5,1-.4.4-.8.9-1,1.5-.2.7-.4,1.4-.4,2.1,0,.9,0,1.2,0,3.5s0,2.6,0,3.5c0,.7.1,1.4.4,2.1.2.6.6,1.1,1,1.5.4.4.9.8,1.5,1,.7.2,1.4.4,2.1.4.9,0,1.2,0,3.5,0s2.6,0,3.5,0c.7,0,1.4-.1,2.1-.4,1.2-.4,2.1-1.4,2.5-2.5.2-.7.4-1.4.4-2.1,0-.9,0-1.2,0-3.5s0-2.6,0-3.5c0-.7-.1-1.4-.4-2.1-.2-.6-.6-1.1-1-1.5-.4-.4-.9-.8-1.5-1-.7-.2-1.4-.4-2.1-.4-.9,0-1.2,0-3.5,0ZM16,11.6c-2.4,0-4.4,2-4.4,4.4s2,4.4,4.4,4.4,4.4-2,4.4-4.4h0c0-2.4-2-4.4-4.4-4.4ZM16,18.9c-1.6,0-2.9-1.3-2.9-2.9,0-1.6,1.3-2.9,2.9-2.9,1.6,0,2.9,1.3,2.9,2.9h0c0,1.6-1.3,2.9-2.9,2.9ZM20.6,10.4c-.6,0-1,.5-1,1s.5,1,1,1c.6,0,1-.5,1-1h0c0-.6-.5-1-1-1Z" style="fill: #fff;"/>
</symbol><use xlink:href="#ico-ig" width="32" height="32" y="80"/><view id="ico-ig-view" viewBox="0 80 32 32"/><symbol id="ico-linkin" viewBox="0 0 32 32">
  <circle cx="16" cy="16" r="16"/>
  <path d="M20.7,31.3c5.6-1.7,9.9-6.5,11-12.4l-9.7-5.6h-2.9l-8.2-4.7-1.9,3.2,2.5,1.5-3.4,10.8,12.5,7.3Z" style="fill: #00456e;"/>
  <path d="M11.9,10.2c0,1-.8,1.9-1.9,1.9s-1.9-.8-1.9-1.9.8-1.9,1.9-1.9,1.9.8,1.9,1.9ZM11.6,13.3h-3.4v10.8h3.4v-10.8ZM20.8,17.7v6.3h3.4v-7.3c0-1.4-1.4-3.9-3.9-3.9s-3.1,1.5-3.7,1.7v-1.2h-3v10.8h3.5v-6.8c.6-2.1,3.3-2.3,3.6.4Z" style="fill: #fff;"/>
</symbol><use xlink:href="#ico-linkin" width="32" height="32" y="112"/><view id="ico-linkin-view" viewBox="0 112 32 32"/><symbol id="ico-mail" viewBox="0 0 16 16"><path d="M1.75 2h12.5c.966 0 1.75.784 1.75 1.75v8.5A1.75 1.75 0 0 1 14.25 14H1.75A1.75 1.75 0 0 1 0 12.25v-8.5C0 2.784.784 2 1.75 2ZM1.5 12.251c0 .138.112.25.25.25h12.5a.25.25 0 0 0 .25-.25V5.809L8.38 9.397a.75.75 0 0 1-.76 0L1.5 5.809v6.442Zm13-8.181v-.32a.25.25 0 0 0-.25-.25H1.75a.25.25 0 0 0-.25.25v.32L8 7.88Z"/></symbol><use xlink:href="#ico-mail" width="16" height="16" y="144"/><view id="ico-mail-view" viewBox="0 144 16 16"/><symbol id="ico-phone" viewBox="0 0 16 16">
  <!-- Generator: Adobe Illustrator 30.3.0, SVG Export Plug-In . SVG Version: 2.1.3 Build 182)  -->
  <path d="M13.2,16C5.9,16,0,10.1,0,2.8s0-.7,0-1c0-.4,0-.7.2-1,.2-.3.4-.5.7-.6C1.3,0,1.6,0,2.1,0h2.3C4.7,0,4.9,0,5.2.1c.2,0,.5.2.6.4.2.2.3.5.4.8l.9,2.6c.2.4.3.7.2,1,0,.3-.1.6-.3.8-.2.3-.4.4-.8.7l-.5.3c.8,1.4,2,2.6,3.4,3.4l.3-.4c.2-.4.4-.6.7-.8.2-.2.5-.3.8-.3.3,0,.6,0,1,.2l2.6.9c.4.1.6.2.8.4.2.2.4.4.4.6.1.3.1.5.1.9v2.2c0,.5,0,.8-.2,1.1-.1.3-.4.5-.7.7-.3.2-.6.2-1,.2-.3,0-.6,0-1,0ZM1.6,1.6s0,.2,0,.3c0,.3,0,.6,0,.9,0,6.4,5.2,11.6,11.6,11.6s.6,0,.9,0c.1,0,.3,0,.4,0h0s0-.2,0-.4v-2.2c0-.2,0-.3,0-.4,0,0-.1,0-.3,0l-2.6-.9c-.2,0-.3-.1-.4-.1,0,0,0,.2-.2.3l-.7,1.1c-.2.4-.7.5-1,.3-2.3-1-4.1-2.9-5.2-5.2-.2-.4,0-.8.3-1l1.1-.7c.2-.1.3-.2.4-.2,0,0,0-.1-.2-.3l-.9-2.6c0-.2,0-.3-.1-.3,0,0-.1,0-.3,0h-2.3c-.2,0-.4,0-.4,0h0Z"/>
</symbol><use xlink:href="#ico-phone" width="16" height="16" y="160"/><view id="ico-phone-view" viewBox="0 160 16 16"/><symbol id="ico-pin" viewBox="0 0 16 16"><path d="m12.596 11.596-3.535 3.536a1.5 1.5 0 0 1-2.122 0l-3.535-3.536a6.5 6.5 0 1 1 9.192-9.193 6.5 6.5 0 0 1 0 9.193Zm-1.06-8.132v-.001a5 5 0 1 0-7.072 7.072L8 14.07l3.536-3.534a5 5 0 0 0 0-7.072ZM8 9a2 2 0 1 1-.001-3.999A2 2 0 0 1 8 9Z"/></symbol><use xlink:href="#ico-pin" width="16" height="16" y="176"/><view id="ico-pin-view" viewBox="0 176 16 16"/><symbol id="image_404" viewBox="0 0 24 24">
  <path d="M12 2C6.48 2 2 6.48 2 12s4.48 10 10 10 10-4.48 10-10S17.52 2 12 2zm-2 15l-5-5 1.41-1.41L10 14.17l7.59-7.59L19 8l-9 9z"/>
</symbol><use xlink:href="#image_404" width="24" height="24" y="192"/><view id="image_404-view" viewBox="0 192 24 24"/></svg>