<svg xmlns="http://www.w3.org/2000/svg" viewBox="0 0 400 450"><path d="M400 253.11v7.23c-.99-1.42-2.03-2.57-2.75-3.68-1.63-.06-2.87.87-5.15 1.05-.04-3.29 1.53-4.56 2.51-6.46 1.9.18 3.74.68 5.4 1.86Z" style="fill:#70635c"/><path d="M400 407.93V450H299.84l4.83-8.14c-3.64 1.36-5.19 5.17-7.24 8.14l-38.89-.02c2.83-3.13 5.93-5.7 7.18-10.19 5.31-2.34 8.21-6.65 9.03-12.38 1.77-2 3.12-4.06 3.48-6.23 1.98-.91 3.35-2.68 3.61-4.81 5.48-3.94 9.18-10.08 12.38-16.5l6.9-12.22 6.15-8.6c1.65-5.73 3.93-10.95 6.73-15.66 2.92-1.41 4.72-4.11 7.54-6.89l11.93 7.13c-.24 3.87.94 7.47 4.42 8.49 2.32-3.02 4.09-5.43 7.78-6.62l3.01 9.74c2.31-2.96 3.85-4.49 5.9-4.84 2.04.41 3.6 2.43 4.2 5.24 8.28 1.91 15.35 6.2 20.84 12.69 5.81 2.86 10.22 7.17 13.68 12.68 2.11 2.38 4 5.04 6.69 6.94Zm-73.21-4.89c3.94-2.87 5.74-6.66 6.69-10.85.35-2.93 1.7-5.17 3.84-7.1 1.57-1.07 2.17-2.66 1.81-3.85-.41-1.65-1.17-3.06-3.27-3.58-6.07 4.01-9.13 10.05-10.61 17.01-1.68 4.02-2.87 7.95-5.79 11.23-.96 2.05-.19 3.95 2.15 4.62 2.68-1.57 4.16-4.13 5.2-7.47Z" style="fill:#101d65"/><path d="M137.39 353.74c-.38 4.74.89 9.77 5.29 12.75 3.25 4.29 7.15 7.16 11.95 9.68-2.85 3.04-3.54 6.11-2.04 9.27 2.72 1.58 3.33 4.41 2.01 6.67-1.78 1.28-4.21.76-6.63.54-2.9 3.2-3.23 7.03-3.78 10.96-4.25 4.86-7.72 9.79-7.74 16.37-2.12 2.45-2.11 6.03.93 7.43l8.54-4.99c2.65-7.53 3.75-14.66 5.33-22.77 4.24 3.21 4.59 7.29 6.65 10.7.84 2.03 1.24 4.49 3.45 6.14 2.79.76 5.48 1.39 7.27 3.08 1.02.97 2.37 1.66 4.68 2.14.53 4.72-1.44 9.19-3.89 13.4l-2.47 14.86h-96.1c.12-3.57 1.25-7.19-.44-11.48-4.14 3.15-4.64 7.65-5.63 11.48H45.51c1.05-4.83.89-10.42 4.79-14.3 2.29 2.9 2.6 5.44 5.52 6.55l2.91-15.37c2.08-6.06 3.64-11.32 7.7-15.56 3.13-.68 6.45-2.74 7.15-7.02-2.26.01-4.08.06-5.93-1.46 4-4.98 8.45-8.91 13.77-12.48 2.66-5.84 7.39-9.57 12.9-11.94 3.58-3.48 6.24-5.73 6.29-11.34 4.14 3.06 5.94 3.59 9.6 2.76.7 2.33 2.72 3.47 4.37 2.65 1.4-.87 3.18-2.39 1.14-4.15-2.24.04-4.26-.6-5.23-2.72l12.97-11.73c1.51 2.38 3.02 3.63 4.89 3.53 2.12-.33 3.66-1.28 5.16-2.89.67-.78 1.31-1.3 2.06-1.59.59.08 1.24.39 1.81.84Z" style="fill:#020102"/><path d="M304.64 371.68c-2.66 2.83-4.21 6.01-5.18 10.66-3.54-1.1-6.5-.16-7.92 2.89-3.07 3.96-7.85 5.7-12.57 7.84-2.12 4.72-4.44 8.86-9.09 11.27-2.93 5.77-6.32 11.28-11.9 14.58-.1 2.81-.47 4.54-1.54 7.73 4.25-.32 8.22-1.86 11.49-5.26 5.24-.84 10.05-2.07 13.93-5.04-.26 2.13-1.63 3.91-3.61 4.81l-7.1 6.14c-3.78 1.22-7.05 2.98-9.37 6.28-4.7 1.92-8.55 4.79-12.64 7.81-4.74 1.52-8.16 4.79-11.02 8.53l-28.97.03c4.01-7.2 9.31-13.99 17.14-16.61 2.86.19 5.54-.6 8.17-2.35 2.21 2.3 4.83 2.03 7.13.3 3.28-1.13 6.38-1.96 8.95-4.46-1.02-4.62-.2-8.51 1.47-12.83-1.28-1.56-2.7-3-3.39-4.84 3.68-5.1 9.24-6.68 14.47-9.27 6.09-2.04 10.81-5.48 14.72-9.96 2.24-1.12 2.08-4.3 1.19-6.89-1.25-2.89-1.61-5.35-1.14-8.32-1.89-1.18-2.51-2.9-2.05-4.63.69-1.11 2.21-2 4.35-2.94 2.52 2.38 2.72 6.3 3.05 10.16.62 2.33 2.11 3.7 4.07 4.02 1.29-.12 2.85-1.02 3.99-2.64 3.4-.26 5.75-1.92 6.58-5.15l6.78-1.87Z" style="fill:#646fc0"/><path d="M256.4 332.97c-.43 2.83-2.95 4.35-5 6.06-.45 1.52-1.79 2.66-3.43 3.6-2.45 1.28-3.17 3.1-2.35 5.84-2.39.22-3.67 1.49-3.68 3.05-2.38-.51-5.63-1.13-7.22 1.04-6.67.8-11.96 5.52-17.38 9.88-7.76 4.15-12.12 11.71-17.58 17.67-1.91 1.29-2.17 3.66-2.38 5.82l-8.41 29.29c-2.85 7.71-6.45 15.02-7.27 23.53-2.22 3.69-3.56 7.47-3.37 11.25h-2.88l4.76-16.06c2.36-3.24 2.33-6.92 1.66-10.23 2.27-.53 3.56-2.01 4.2-4.62l5.45-23.5c-2.38 2.97-4.84 4.2-8.57 4.68-.5 1.77-1.55 3.03-2.78 3.84l-2.86-2.37c-1.79 3.92-3.98 6.16-7.58 8.34.07 2.18-.89 4.23-3.51 3.84.81-5.6 3.59-9.51 6.77-14.09 4.3-.33 6.17-3.7 5.65-8.24 5.6-2.08 9.04-5.73 12.74-9.13 4.6-2.21 8.45-5.77 11.4-10.37l17.68-18.47c6.2-2.04 10.26-7.46 15.38-12.07 5.02-1.27 9.3-3.08 13.08-5.56 3.23 1.31 5.05-2.21 7.49-3.02Z" style="fill:#6b6eae"/><path d="m200.02 443.92-2.85 6.06h-7.85l7.77-20.91 1.7-15.83.29-1.65c1.01 1.05 2.55 1.16 3.58.76 1.16-.59 1.94-1.56 2.48-2.9 4.12-5.96 7.26-12.28 12.9-16.16.1 2.13-.92 4.26-2.36 6.24-.57 4.19-3.33 6.69-7.18 8.46.59 4.24-.67 7.06-4.56 9.37l7.34 5.84c-1.96 1.84-3.94 1.81-6.29 1.68-2.26 3.89-3.54 7.85-4.66 12.14-2.26 2.17-2.17 5.1-.31 6.89Z" style="fill:#5f67ad"/><path d="M226.28 433.35c-7.83 2.62-13.13 9.41-17.14 16.61l-11.97.03 2.85-6.06c1.55-.82 2.98-2.31 2.89-4.41-1.84-2.93-.49-5.62 2.19-7.32l13.11-6.88.75 3c1.05.92 1.97.99 3.48.63 3.17-.87 7.5-1.85 9.38 1.12-3.01.72-4.92 1.39-5.54 3.28" style="fill:#3c417d"/><path d="m258.55 449.97-20.44-.04c2.86-3.74 6.28-7.01 11.02-8.53 4.09-3.02 7.93-5.89 12.64-7.81 2.33-3.3 5.59-5.05 9.37-6.28l7.1-6.14c-.36 2.16-1.71 4.23-3.48 6.23-.82 5.73-3.72 10.04-9.03 12.38-1.25 4.49-4.35 7.06-7.18 10.19" style="fill:#4c579f"/><path d="M66.43 411.29c-4.07 4.25-5.62 9.5-7.7 15.56l-2.91 15.37c-2.92-1.11-3.23-3.65-5.52-6.55-3.9 3.88-3.74 9.48-4.79 14.29l-4.79.03c3.07-7.69 5.33-15.64 10.31-22.95-2.42-4.22-.71-7.24 1.06-10.83l6.89-6.88c-.13.73.25 1.43.85 1.98.62-.75 1.31-1.31 2.17-1.86 1.34-.74 2.57-1.19 3.83-1.71 1.49.74 1.05 2.46.61 3.55Z" style="fill:#42322a"/><path d="M186.49 449.99h-8.16c-.19-3.78 1.15-7.55 3.37-11.25.82-8.5 4.42-15.82 7.27-23.53l8.41-29.29c-.21 8.72-1.75 17.37-4.05 26 .97 9.56-1.93 18.45-5.63 27.12l-1.22 10.95Z" style="fill:#373972"/><path d="M181.87 423.71c.67 3.31.7 6.99-1.66 10.23L175.45 450l-8.51-.02 2.47-14.86c2.45-4.21 4.42-8.67 3.89-13.4-2.3-.48-3.66-1.17-4.68-2.14 2.96.33 4.89-1.46 8.91-3.28.48 3.9 1.57 6.5 4.34 7.42Z" style="fill:#151c4e"/><path d="m198.79 413.25-1.7 15.83-7.77 20.92h-2.83l1.22-10.96c3.7-8.67 6.6-17.56 5.63-27.12 2.29-8.63 3.83-17.28 4.05-26 .21-2.16.47-4.53 2.38-5.82 2 4.51 1.85 9.45.19 14.52-.43 4.59-.98 8.87-2.37 13.36-.45 2.18-.14 4.12 1.22 5.26Z" style="fill:#1d1e55"/><path d="m40.71 449.99-14.33-.02c1.02-1.44 2.11-2.72 3.58-3.97 6.7-5.8 11.72-12.73 15.19-20.9 2.11-3.44 3.79-7.02 6.93-8.89-1.77 3.59-3.47 6.61-1.06 10.83-4.98 7.31-7.24 15.26-10.31 22.95" style="fill:#6f584a"/><path d="M70.84 449.99h-6.07c.99-3.84 1.49-8.34 5.63-11.5 1.69 4.29.56 7.92.44 11.5" style="fill:#302827"/><path d="M299.84 449.99h-2.41c2.05-2.97 3.59-6.79 7.24-8.14z" style="fill:#616bad"/><path d="M400 336.07v71.85c-2.69-1.9-4.58-4.55-6.69-6.94-3.46-5.51-7.87-9.81-13.68-12.68-5.5-6.48-12.56-10.78-20.84-12.69-.61-2.81-2.17-4.83-4.2-5.24-2.05.35-3.59 1.88-5.9 4.84l-3.01-9.74c-3.69 1.18-5.46 3.6-7.78 6.62-3.48-1.02-4.66-4.62-4.42-8.49l-11.93-7.13c-2.82 2.78-4.63 5.48-7.54 6.89l.62-4.01 5.56-4.29c2.48-1.6 4.89-3.03 8.29-4.05-.07-2.88-.38-5.07.35-7.93 4.48-1.67 9.8-2.87 13.57.31-5.44 1.89-10.55 3.1-13.24 7.73 2.89 3.82 7.31 4.48 11.63 3.63l15.38 2.64 4.76-9.95c-1-4.39 1.35-7.07 5.09-8.92 2.49-1.3 5.69 1.11 8.39 3.69 4.1-1.74 7.67-2.35 11.88-1.84 1.5-.9 2.99-1.15 4.13-1.03 1.11.63 2.05 1.84 3.1 3.05 1.88.45 3.16-1.05 2.45-2.35l-2.56-2.48c1.52-1.96 4.22-2.15 6.59-1.48Z" style="fill:#0a2781"/><path d="m301.13 387.63-6.9 12.22c-3.2 6.42-6.9 12.57-12.38 16.5-3.88 2.98-8.68 4.2-13.93 5.04-3.27 3.4-7.25 4.93-11.49 5.26 1.07-3.19 1.44-4.92 1.54-7.73 5.58-3.3 8.97-8.81 11.9-14.58 4.66-2.4 6.97-6.55 9.09-11.27 4.72-2.14 9.5-3.88 12.57-7.84 1.42-3.06 4.38-4 7.92-2.89.97-4.66 2.52-7.83 5.18-10.66.54-1.8 1.69-3.47 3.11-5.22 1.57-1.81 2.01-3.81 1.82-5.71.13-.82.53-1.66 1.34-2.27.4-.08.72-.39.84-.76 1.02-1.02 2.33.58 1.48 2.05l-8 18.49c-2.43 2.87-3.77 6.05-4.09 9.36Z" style="fill:#6a7ad3"/><path d="M326.79 403.04c-1.04 3.33-2.52 5.9-5.2 7.47-2.34-.66-3.1-2.57-2.15-4.62 2.92-3.28 4.11-7.21 5.79-11.23 1.48-6.96 4.54-12.99 10.61-17.01 2.09.52 2.86 1.93 3.27 3.58.37 1.2-.23 2.78-1.81 3.85-2.13 1.94-3.49 4.17-3.84 7.1-.95 4.2-2.75 7.98-6.69 10.85Z" style="fill:#0a2781"/><path d="m314.63 359.36-.62 4.01c-2.79 4.71-5.08 9.93-6.73 15.66l-6.15 8.6c.32-3.31 1.66-6.49 4.09-9.36l8-18.49c.85-1.47-.46-3.07-1.48-2.05-.11.37-.43.68-.84.76.5-2.97-.23-7.37 4.71-7.22l-.98 8.1Z" style="fill:#5a64af"/><path d="m138.59 341.91.04.86c-.79.1-1.45 1.14-1.17 2.41l-.07 8.56c-.57-.44-1.22-.76-1.81-.84-.75.29-1.39.82-2.06 1.59-1.5 1.61-3.04 2.56-5.16 2.89-1.87.1-3.38-1.15-4.89-3.53l-12.97 11.73c.97 2.12 2.98 2.76 5.23 2.72 2.03 1.75.25 3.27-1.14 4.15-1.65.82-3.67-.33-4.37-2.65-3.66.83-5.46.3-9.6-2.76-.05 5.61-2.71 7.86-6.29 11.34-5.51 2.37-10.24 6.1-12.9 11.94-5.32 3.57-9.78 7.51-13.77 12.48 1.85 1.52 3.66 1.47 5.93 1.46-.7 4.28-4.03 6.34-7.15 7.02.44-1.09.88-2.8-.61-3.55-1.25.52-2.49.96-3.83 1.71-.86.55-1.54 1.11-2.17 1.86-.6-.55-.99-1.25-.85-1.98 2.95-4.86 6.94-8.98 11.52-13.1l20.02-23.03 10.75-9.82c3.56 1.79 6.81.73 8.09-2.89 4.28-1.59 7.58-4.15 9.9-8.23 4.11-.39 6.84-2.59 7.55-6.66 3.45-1.99 5.93-4.43 8.5-7.5 1.31-.33 2.57-.05 3.42.59-.08 1.21-.12 2.24-.13 3.23Z" style="fill:#35221a"/><path d="M138.59 341.91c0-.99.04-2.02.13-3.23-.85-.64-2.11-.91-3.42-.59-2.56 3.07-5.05 5.51-8.5 7.5-.71 4.07-3.43 6.26-7.55 6.66-2.32 4.08-5.62 6.64-9.9 8.23-1.28 3.61-4.53 4.68-8.09 2.89l-10.75 9.82-.22-1.63c4.17-4.96 8.93-9.33 15.16-12.45 2.76-4.33 5.78-8 10.49-10.06 6.48-2.59 13.25-5.98 15.96-12.16l6.66-8.66c-.25 2.82.03 5.74 1.17 8.93.55 2.02-.02 3.68-1.14 4.75" style="fill:#6e4d39"/><path d="M188.07 349.04c.53.43 1 .96 2.74 1.63-3.37 2.11-6.89 1.9-10.78.46l-1.69 1.99c.55.74 1.46.92 2.35.39 3.97 1.41 7.27 1.19 10.63.45-.69 1.5-2.06 2.55-3.44 3.36l-21.94 15.15 7.49-.81c-3.59 4.86-7.32 9.91-12.87 13.39-2.35-2.23-5.67-4.35-8.09-2.07 4.44 3 5.39 4.85 4.71 9.84l12.28-13.12c2.89-3.91 6.18-7.33 10.36-9.03l7.04-4.48c4.19 2.94 8.28 3.98 13.68 1.31 1.22 2.15.24 5.05-1.82 6.33-3.85-.53-6.7-1.85-9.69-4.71-4.55 2.06-7.67 6.11-8.74 11.22 4.29 1.88 7.75-.48 10.79-2.46.51 1.82.44 3.29.28 4.58-3.7 3.41-7.13 7.05-12.74 9.13.52 4.55-1.35 7.91-5.65 8.24-3.18 4.58-5.96 8.49-6.77 14.09 2.63.39 3.58-1.66 3.51-3.84 3.61-2.19 5.79-4.42 7.58-8.34l2.86 2.37c1.24-.81 2.28-2.07 2.78-3.84 3.73-.49 6.19-1.71 8.57-4.68l-5.45 23.5c-.64 2.62-1.93 4.1-4.2 4.62-2.77-.92-3.86-3.51-4.34-7.42-4.03 1.82-5.95 3.61-8.91 3.28-1.79-1.69-4.48-2.32-7.27-3.08-2.21-1.64-2.61-4.11-3.45-6.14.48-3.33-.32-6.66-2.92-9.48-1.01-3.07-.76-6.01-.37-8.76 1.32-2.25.71-5.08-2.01-6.67-1.49-3.17-.81-6.23 2.04-9.27-4.8-2.51-8.7-5.39-11.95-9.68-4.4-2.99-5.67-8.02-5.29-12.75l.07-8.56c-.28-1.27.38-2.31 1.17-2.41l-.04 14.54c.34 3.21 2.14 5.58 4.69 7.39.85 2.25 2.55 3.58 4.37 3.66 2.04.09 3.87-.92 5.26-2.74 1.54-2.31 4.1-2.9 6.56-1.6 3.47 2.29 7.31 2 10.68-.68l2.76.06c.79-.49 1.18-1.86-.28-3.11-4.5-.64-8.64-.89-13.59-2.1l3.74-4.28-11.24.35c-.36 1.68-1.06 2.45-1.56 3.13-1.49.63-3-.12-3.28-2.04-1.31-1-1.77-2.23-1.83-3.31.32-1.12 1.12-2.13 2.62-2.93 4.73.7 8.81 2.66 14.57 1.98-2.92-2.19-6.06-2.41-9.82-2.45-.96-.54-1.27-1.22-1.4-1.7-.75-.58-.3-1.53.55-1.42.6-.07 1.36.05 2.07.75 3.43.38 6.47.91 9.6 2.48l25 .29Zm-30.17 27.93 7.57-4.44c-.74-2.74-3.32-4.85-5.91-5.5-2.47-.13-4.47 1.51-6.37 4.12l4.71 5.81Zm6.29 22.95c4.54-3.47 7.23-7.64 8.72-12.85 2.28-.71 3.63-2.33 4.15-4.02-.2-1.38-1.24-2.49-2.82-4.92-3.77 3-7.64 6.47-10.81 11.04-.62 3.56-.98 6.68.77 10.75Z" style="fill:#45477a"/><path d="M154.6 392.11c-.38 2.75-.64 5.69.37 8.76 2.61 2.83 3.4 6.15 2.92 9.48-2.06-3.41-2.41-7.49-6.65-10.7-1.58 8.11-2.68 15.23-5.33 22.77l-8.54 4.99c-3.03-1.4-3.05-4.98-.93-7.43.02-6.58 3.49-11.51 7.74-16.37.55-3.93.88-7.76 3.78-10.96 2.42.23 4.85.75 6.63-.54Zm-13.3 29.52c4.33-3.55 4.54-8.72 2.05-12.56-2.78 1.27-4.38 3.54-4.4 5.66-.57 2.79-1.39 6.04 2.35 6.9" style="fill:#1b1f3d"/><path d="M256.53 351.28c-.27 1.1-1.14 1.95-1.85 2.08l-4.48-1.46-4.68 8.84 7.53 1.02c-1.64-.13-3.07.88-4.37 2.26-.24 1.75 1.35 3.42 3.52 3.8 1.89 1.16 1.63 3.26.49 5.18 1.94 4.35 6.68 4.17 10.61 4.46 7.6.87 13.34 5.57 14.52 12.49-3.91 4.48-8.63 7.92-14.72 9.96-5.23 2.59-10.79 4.17-14.47 9.27.69 1.84 2.11 3.28 3.39 4.84-1.67 4.32-2.49 8.21-1.47 12.83-2.57 2.5-5.67 3.33-8.95 4.46-2.3 1.73-4.92 2-7.13-.3-2.63 1.74-5.31 2.53-8.17 2.35.62-1.88 2.54-2.56 5.54-3.28-1.87-2.96-6.21-1.99-9.38-1.12-1.51.35-2.43.29-3.48-.63l-.75-3-13.11 6.88c-2.68 1.7-4.03 4.39-2.19 7.32.09 2.1-1.35 3.58-2.89 4.41-1.86-1.79-1.95-4.72.31-6.89 1.12-4.29 2.4-8.25 4.66-12.14 2.34.13 4.33.17 6.29-1.68l-7.34-5.84c3.89-2.31 5.15-5.13 4.56-9.37 3.85-1.77 6.61-4.27 7.18-8.46 1.44-1.98 2.46-4.11 2.36-6.24 2.75-5.39 5.82-10.59 7.17-16.55 1.22 2.33 3.24 4.66 5.44 4.79 2.89-.66 5.27-2.43 6.09-5.62 3.73-1.42 5.98-4.09 5.82-8.25 2.91-3.59 2.11-7.8-1.41-10.54 1.79-1.73 1.73-3.56 1.65-5.61 4.45-2.3 9.14.19 13.71-.24Z" style="fill:#4a55a1"/><path d="M309.57 360.75c.18 1.91-.26 3.9-1.82 5.71-1.42 1.75-2.57 3.42-3.11 5.22l-6.78 1.87c-.83 3.24-3.18 4.89-6.58 5.15-1.14 1.62-2.71 2.52-3.99 2.64-1.96-.33-3.45-1.69-4.07-4.02-.33-3.86-.53-7.78-3.05-10.16-2.14.94-3.66 1.83-4.35 2.94-.47 1.73.15 3.44 2.05 4.63-.47 2.98-.11 5.43 1.14 8.32.89 2.59 1.04 5.77-1.19 6.89-1.17-6.91-6.92-11.62-14.52-12.49-3.94-.29-8.68-.11-10.61-4.46 1.14-1.92 1.41-4.01-.49-5.18-2.17-.38-3.75-2.05-3.52-3.8 1.3-1.38 2.73-2.39 4.37-2.26 6.36-1.33 12.69-2.37 18.69-4.78 3.44-.2 6.75-1.17 10.36-.3 1.13-1.76 2.33-2.49 3.61-3.07 3.01-.21 6.12.91 7.61 4.21 2.47 4.53 6.88 7.96 12.1 8.09l4.13-5.16Z" style="fill:#5a64af"/><path d="M400 273.1v62.97c-2.38-.67-5.08-.48-6.59 1.48l2.56 2.48c.71 1.31-.57 2.81-2.45 2.35-1.05-1.21-2-2.42-3.1-3.05-1.14-.13-2.63.13-4.13 1.03-4.21-.5-7.79.11-11.88 1.84-2.7-2.59-5.9-4.99-8.39-3.69-3.74 1.86-6.08 4.53-5.09 8.92l-4.76 9.95-15.38-2.64c-4.31.85-8.73.19-11.63-3.63 2.69-4.63 7.8-5.84 13.24-7.73-3.77-3.18-9.09-1.98-13.57-.31-.73 2.86-.41 5.05-.35 7.93-3.4 1.02-5.81 2.45-8.29 4.05.89-4.1 3.43-7.46 5.98-11.16 2.23-4.65 3.22-9.75 6.84-13.27 1.87 1.16 3.41 1.82 4.72 2.15 1.09-1.16 1.3-2.7 1.3-4.34-1.18-5.55-.76-10.71 2.75-15.12-2.57-3.65-2.3-7.52-2.74-11.71-3.38-2.27-5.85-4.81-5.77-9.42l-5.12 1.22c-1.37-.67-2.6-2.03-2.84-4.78.95-.73 2.07-.74 4.07-.26l-3.46-5.78c2.4-1.11 5.06-1.11 7.68-1l5.48 2.1c2.39-.15 4.89.25 7.16 2.04 1.85.75 3.56.79 5.1.61 1.03 2.59 3.88 4.4 7.01 4.51 2.62-2.4 6.13-3.07 8.99-1.1 2.17 3.99 6.09 7.64 10.86 6.34-1.8-3.43-4.6-4.17-7.72-6.7 3.56-1.25 5.27-3.98 7.32-6.74 1.21.04 2.52.32 3.94 1.1 1.44 1.31 3.14.77 4.05-.35 2.38.54 4.77 1.27 7.64-.09.81-1.37 2.35-4.89.13-6.62 1.45-2.03 3.63-4.01 6.41-3.6Z" style="fill:#0c2b87"/><path d="M394.6 251.25c-.97 1.9-2.55 3.17-2.51 6.46 2.29-.18 3.52-1.11 5.15-1.05.72 1.1 1.77 2.25 2.75 3.68v9.53c-2.05-.52-3.68-2.08-3.84-4.18-2.45-4.52-7.2-7.5-11.06-10.93-.69-.81-1.25-1.69-1.51-2.29-1.22-1.25-1.32-3.2.61-3.44 3.41 1.05 6.8 2.47 10.4 2.21Z" style="fill:#171522"/><path d="M396.16 265.7c.16 2.09 1.79 3.65 3.84 4.18-.28.97-.29 2.03 0 3.23-2.78-.42-4.97 1.57-6.41 3.6-1.11 3.84-3.94 6.02-7.77 6.71-.91 1.13-2.61 1.66-4.05.35-1.42-.79-2.74-1.07-3.94-1.1-1.04-.61-2.2-.98-3.38-1.16.19-1.01 1.83-1.29 3.05-.66 3.73 1.07 7.06 1.33 10.67-.06 2.79-3.18 4.97-6.96 5.64-11.3-.42-1.46-.1-2.61.56-3.51.47-.17 1.11-.26 1.81-.27Z" style="fill:#686596"/><path d="m260.5 325.83-.24 1.38-11.36 8.77c-3.78 2.48-8.06 4.3-13.08 5.56-5.12 4.61-9.18 10.03-15.38 12.07l-15.63 1.29c-4.79-.84-9.25-1.7-13.5-.95-3.36.74-6.66.96-10.63-.45-.9.53-1.81.35-2.35-.39l1.69-1.99c3.89 1.44 7.41 1.65 10.78-.46-1.74-.67-2.21-1.2-2.74-1.63.04-1.89.88-3.67 2.32-4.88 2.79-.4 4.48-2.67 6-4.85 3.75-.76 6.41-3.59 8.54-7.49-4.05.66-8.11 1.18-9.53-2.1.39-1.3 1.44-2.35 3.04-2.79 6.57-3.54 13.1-6.29 19.92-9.02 6.58-3.33 12.7-6.44 18.55-10.08l-4.88 8.23c5.75-.17 11.82-1.34 15.78-6.08l13.62-4.82c1.87 1.12.79 2.35.31 2.61-1.02.57-1.79 1.02-2.98 1.18-3.26 3.29-6.44 5.95-10.96 6.94-3.33 3.5-7.59 5.49-11.74 7.59-1.71 5.52-5.13 6.69-10.35 8.79 4.05 1.8 6.86-.98 10.62.41 4.35-3.14 9.18-4 14.47-4.83 2.87-2.79 6.52-3.93 9.69-2.03Z" style="fill:#0d0b32"/><path d="M314.48 293.52c-2.47 3.76-6.16 6.43-10.52 9.54l1.94 13.43-7.33 2.53c1.72 3.15 1.45 6.12-.73 8.63-2.61 1.77-3.46 4.5-2.84 8.22-6.22-.33-11.84 1.02-15.92 5.4-.3 2.71-1.37 4.86-3.94 6.16-.41 2.19 1.69 3.81 4.25 3.86 2.69.04 4.9.61 6.32 2.3-1.29.58-2.48 1.3-3.61 3.07-3.61-.87-6.92.1-10.36.3 1-.57 1.55-1.73 1.67-2.58-.9-1.3-2.07-1.89-3.7-1.67l-13.18-1.45c-4.57.43-9.27-2.06-13.71.24-.03.11-.5.17-.87 0 .01-1.56 1.29-2.83 3.68-3.05-.82-2.73-.1-4.55 2.35-5.84 1.64-.93 2.98-2.08 3.43-3.6 6.73-.54 13.55-2.2 19.87-5.16-2.03-1.83-3.08-2.95-2.95-5.23l18.68-14.38c2.73-3.61 5.83-6.84 9.96-9.15 1.62-.77 2.06-2.4 1.65-3.61-.26-1.46-1.6-2.21-2.98-2.2l1.07-1.42c2.85.93 6.13 1.05 8.98-.94 2.56-2.51 5.66-3.64 8.8-3.42Z" style="fill:#4656ad"/><path d="m234.72 352.55 6.02.21c.52 1.71-.11 3.16-1.06 3.94l-3.58.65c-3.27.26-6.81.31-8.67 2.42-.37 1.38-.31 2.9.14 4.74l-16.71 26.52c-4.65 6.78-8.72 13.46-11.76 20.57l-.29 1.65c-1.36-1.14-1.67-3.08-1.22-5.26 1.4-4.48 1.94-8.77 2.37-13.36 1.66-5.07 1.81-10.01-.19-14.52 5.47-5.96 9.82-13.52 17.58-17.67 5.42-4.36 10.71-9.07 17.38-9.88Z" style="fill:#0b0833"/><path d="m220.45 353.62-17.68 18.47c-2.95 4.6-6.8 8.16-11.4 10.37.17-1.29.24-2.76-.28-4.58-3.05 1.98-6.5 4.34-10.79 2.46 1.06-5.11 4.19-9.16 8.74-11.22 3 2.86 5.84 4.18 9.69 4.71 2.06-1.28 3.03-4.18 1.82-6.33-5.4 2.67-9.49 1.63-13.68-1.31l-7.04 4.48c.94-4.16 5.23-6.41 8.83-9.01 1.24-.81 1.46-2 1.23-3.38-.42-.33-1.16-.68-2-.96 1.38-.81 2.75-1.86 3.44-3.36 4.25-.74 8.7.11 13.5.95l15.63-1.29Z" style="fill:#54558c"/><path d="M251.4 339.03c2.05-1.71 4.57-3.23 5-6.06l8.44-5.28c-1.75-.79-3.17-.52-4.58-.47l.24-1.38c7.17-5.13 14.38-10.36 21.07-16.86 3.31-2.24 6.52-4.26 8.79-7l5.27-2.68c1.38 0 2.73.73 2.98 2.2.4 1.21-.03 2.84-1.65 3.61-4.13 2.3-7.22 5.54-9.96 9.15l-18.68 14.38c-.14 2.28.92 3.4 2.95 5.23-6.31 2.97-13.13 4.62-19.87 5.16" style="fill:#6067ad"/><path d="M256.4 332.97c-2.44.81-4.26 4.33-7.49 3.02l11.36-8.77c1.4-.05 2.83-.32 4.58.47l-8.44 5.28Z" style="fill:#a490ad"/><path d="M241.94 351.52c.37.17.85.12.87 0 .07 2.05.13 3.88-1.65 5.61 3.52 2.74 4.32 6.95 1.41 10.54.16 4.16-2.1 6.83-5.82 8.25-.83 3.19-3.2 4.95-6.09 5.62-2.2-.14-4.22-2.47-5.44-4.79 3.1-4.96 4.55-10.49 4.81-16.9-1.12-.29-1.92-.04-2.6-.07 1.87-2.11 5.4-2.16 8.67-2.42l3.58-.65c.95-.77 1.58-2.22 1.06-3.94l-6.02-.21c1.6-2.17 4.84-1.54 7.22-1.04" style="fill:#3a4287"/><path d="M225.21 376.74c-1.35 5.96-4.42 11.16-7.17 16.55-5.64 3.88-8.78 10.2-12.9 16.16-.54 1.35-1.32 2.31-2.48 2.9-1.03.39-2.57.28-3.58-.76 3.05-7.1 7.12-13.79 11.76-20.57l16.71-26.52c-.45-1.84-.51-3.37-.14-4.74.68.03 1.48-.22 2.6.07-.26 6.41-1.71 11.94-4.81 16.9Z" style="fill:#717ac9"/><path d="m320.19 355.07-5.56 4.29.98-8.1c-4.94-.15-4.21 4.25-4.71 7.22-.8.61-1.2 1.45-1.34 2.27l-4.13 5.16c-5.23-.13-9.64-3.56-12.1-8.09-1.49-3.3-4.6-4.42-7.61-4.21-1.43-1.7-3.63-2.26-6.32-2.3-2.56-.06-4.66-1.67-4.25-3.86 2.57-1.31 3.64-3.46 3.94-6.16 4.08-4.38 9.7-5.73 15.92-5.4-.62-3.72.23-6.45 2.84-8.22 2.17-2.52 2.44-5.49.73-8.63l7.33-2.53-1.94-13.43c4.36-3.11 8.04-5.78 10.52-9.54 2.54-1.9 4.5-4.46 6.05-7.22 2.16-.71 3.63-2.44 5.4-3.71l3.46 5.78c-2-.48-3.12-.48-4.07.26.24 2.76 1.48 4.11 2.84 4.78l5.12-1.22c-.08 4.61 2.38 7.15 5.77 9.42.44 4.18.17 8.06 2.74 11.71-3.51 4.41-3.93 9.57-2.75 15.12 0 1.63-.21 3.18-1.3 4.34-1.32-.33-2.85-.99-4.72-2.15-3.62 3.53-4.61 8.62-6.84 13.27-2.56 3.71-5.09 7.07-5.98 11.16Z" style="fill:#2e439f"/><path d="M160.13 327.35c1 2.52 2.41 5.19 4.43 7.6 3.49 1.33 6.83.98 10.21-.18 3.66.51 7.03.72 10.68 0 3.14 2.46 5.04 5.76 4.94 9.4a6.58 6.58 0 0 0-2.32 4.88l-25-.29c-3.13-1.57-6.17-2.1-9.6-2.48-.71-.69-1.47-.82-2.07-.75-.85-.11-1.3.83-.55 1.42.13.49.43 1.17 1.4 1.7 3.76.04 6.9.26 9.82 2.45-5.77.68-9.84-1.29-14.57-1.98-1.5.8-2.3 1.8-2.62 2.93.06 1.07.52 2.3 1.83 3.31.27 1.92 1.78 2.67 3.28 2.04.5-.68 1.2-1.44 1.56-3.13l11.24-.35-3.74 4.28c4.95 1.21 9.09 1.47 13.59 2.1 1.45 1.25 1.06 2.62.28 3.11l-2.76-.06c-3.37 2.68-7.21 2.97-10.68.68-2.46-1.3-5.02-.71-6.56 1.6-1.4 1.82-3.23 2.83-5.26 2.74-1.81-.07-3.52-1.41-4.37-3.66-2.55-1.82-4.35-4.19-4.69-7.39l.04-14.54-.04-.86c1.12-1.07 1.69-2.73 1.14-4.75-1.14-3.19-1.42-6.11-1.17-8.93.21-2.38.03-4.75-.91-7.02-1.02-2.85-2.69-6.26-.25-8.63-.15 1.62.08 3.28 1.32 4.93 6.61 4.83 13.76 8.74 21.41 9.83Z" style="fill:#6669a8"/><path d="M179.82 370.67c-4.18 1.7-7.47 5.12-10.36 9.03l-12.28 13.12c.68-4.99-.27-6.84-4.71-9.84 2.42-2.29 5.74-.17 8.09 2.07 5.56-3.48 9.29-8.52 12.87-13.39l-7.49.81 21.94-15.15c.84.28 1.58.63 2 .96.23 1.38 0 2.56-1.23 3.38-3.59 2.6-7.88 4.85-8.83 9.01" style="fill:#7174af"/><path d="M164.19 399.92c-1.75-4.07-1.39-7.19-.77-10.75 3.17-4.57 7.04-8.04 10.81-11.04 1.58 2.43 2.63 3.54 2.82 4.92-.51 1.69-1.87 3.31-4.15 4.02-1.49 5.21-4.17 9.38-8.72 12.85Z" style="fill:#2e2d5b"/><path d="m157.9 376.97-4.71-5.81c1.91-2.61 3.9-4.25 6.37-4.12 2.58.64 5.16 2.76 5.91 5.5l-7.57 4.44Z" style="fill:#120f30"/><path d="M141.3 421.63c-3.74-.86-2.92-4.11-2.35-6.9.02-2.12 1.62-4.39 4.4-5.66 2.48 3.85 2.27 9.02-2.05 12.56" style="fill:#404369"/><path d="m141.11 305.78 5.05 4.27c2.04 3.04 4.15 5.57 6.66 7.56.63 1.02 1.5 1.86 2.56 2.42 1.06 1.76 3.09 2.44 4.8 3.44 1.35 1.5 3.49 1.76 5.96 1.35-.21 1.36-.94 1.79-1.38 2.4l-4.63.13c-7.65-1.1-14.81-5-21.41-9.83-1.25-1.66-1.47-3.31-1.32-4.93-.02-1.52.02-2.94.48-4.65.31-1.28 1.57-2.31 3.23-2.16" style="fill:#341d27"/><path d="M271.74 356.98c-6 2.41-12.33 3.45-18.69 4.78l-7.53-1.02 4.68-8.84 4.48 1.46c.72-.14 1.58-.98 1.85-2.08l13.18 1.45c1.63-.22 2.8.37 3.7 1.67-.12.85-.67 2.01-1.67 2.58" style="fill:#3a4287"/><path d="M374.43 281.5c1.19.18 2.35.54 3.38 1.16-2.05 2.76-3.76 5.48-7.32 6.74 3.12 2.52 5.93 3.27 7.72 6.7-4.77 1.31-8.7-2.35-10.86-6.34-2.87-1.97-6.37-1.3-8.99 1.1-3.14-.11-5.98-1.91-7.01-4.51l3.85-.11c4.24.02 8.32 1.48 13.37.28l2.09-6.12z" style="fill:#0a2781"/><path d="M321.87 277.51c-.23 1.21.49 2.17 1.92 1.72 3.58-1.21 6.6-.94 9.48-.02l.34 2.38c-2.62-.1-5.28-.1-7.68 1-1.77 1.28-3.24 3-5.4 3.71l.88-2.41c-3.4 1.25-5.89 2.61-8.2 4.61-2.16 1.52-4.56 2.65-7.24 2.57 3.18-6.38 9.26-11.15 15.89-13.57Zm33.33 8.73-3.85.11c-1.55.18-3.26.14-5.1-.61-2.28-1.79-4.77-2.19-7.16-2.04l.47-2.51 15.65 5.06Z" style="fill:#3d304a"/><path d="M385.81 283.41c3.84-.69 6.66-2.87 7.77-6.71 2.22 1.73.67 5.25-.13 6.62-2.87 1.36-5.26.63-7.64.09m-46.26-2.23-.47 2.51-5.48-2.1-.34-2.38c2.27 0 4.25 1.13 6.29 1.96Z" style="fill:#0a2781"/><path d="M356.55 203.24c1.53-.11 3.12.28 4.2 1.08 1.23 1.13 1.92 2.87 1.67 4.87 1.93 3.9.93 7.1-3.38 9.75 4.54 5.46 5.3 10.75 4.54 16.71.6 3.61 2.13 7.42.62 11.53-3.15 4.58-7.21 7.84-11.68 11.17 3.71 1.4 5.46-.87 8.86-2.77.4 4.85-2.87 7.09-5.7 9.49-2.61 1.85-2.24 5.08-.31 6.81-5.52-.44-11.27-.3-17.25.94-6.22-.41-11.53 1.64-16.23 4.69-6.63 2.42-12.71 7.18-15.89 13.57l-8.85 5.82c-.05.32-.26.73-.42.98l-1.07 1.42-5.27 2.68c-.61-2.22.52-4.14 2.44-5.96 7.69-5.78 13.26-13.29 17.66-21.92 3.37-3.35 5.9-7.06 7.79-11.45 2.43-2.3 3.99-4.83 4.69-7.61l7.47-14.04c7.07-8.22 14.16-16.19 18.54-25.63 1.53-2.27 2.65-4.81 3.03-8.09.1-1.68.74-3.06 1.67-3.77 1-.35 1.97-.4 2.91-.29Z" style="fill:#03040c"/><path d="M377.8 245.4c2.76 3.51-.26 6.26-2.29 9.62-2.58 1.5-5 3.5-6.24 6.84l-5.3 6.74c-1.87 1.61-2.75 3.6-2.83 5.59-2.1-.29-4.18-.88-5.78-2.3-1.93-1.74-2.3-4.96.31-6.81 2.83-2.4 6.09-4.64 5.7-9.49-3.4 1.9-5.15 4.17-8.86 2.77 4.48-3.33 8.54-6.59 11.68-11.17 1.51-4.11-.01-7.92-.62-11.53 1.78 2.79 4.99 3.9 8.52 4.7l5.71 5.06Z" style="fill:#1d2336"/><path d="M384.2 249.04c-1.93.24-1.83 2.19-.61 3.44.26.6.82 1.48 1.51 2.29l-6.96.42-.21 9.09c-2.21 4.2-4.75 7.71-9.53 9.99-.62 2.15.32 3.3 1.55 3.8l.72 2.32-2.09 6.12c-5.06 1.2-9.13-.26-13.37-.28l-15.65-5.06c-2.03-.83-4.02-1.95-6.29-1.96-2.88-.92-5.89-1.19-9.48.02-1.44.44-2.16-.51-1.92-1.72 4.71-3.05 10.01-5.1 16.23-4.69 5.98-1.24 11.73-1.38 17.25-.94 1.61 1.43 3.68 2.02 5.78 2.3.59 1.15 1.79 1.68 2.88 1.37 1.05-.6 2.04-1.56 2.75-2.95 3.8-1.86 6.98-4.32 8.56-8.35l.18-9.23c2.04-3.36 5.05-6.11 2.29-9.62l6.4 3.64Zm-30.67 33.91c-1.01-2.58-1.8-3.91-1.26-4.77.83-1.81 2.18-2.3 4.29-3.51l-11.16-1.54-16.86 3.11c8.87.63 16.26 4.64 24.99 6.71m13.71.48c-2.41-6.09-8.21-8.12-12.92-4.57 2.6 5.33 7.76 6.08 12.92 4.57" style="fill:#5f5269"/><path d="M353.46 200.84c.76 1.06 1.84 1.98 3.08 2.4-.94-.1-1.92-.06-2.91.29-.93.7-1.57 2.08-1.67 3.77-.37 3.28-1.49 5.82-3.03 8.09-1.04.15-1.9-.41-2.16-.88l-.2-2.71c2.12-6.4 3.07-12.33 3-18.58 1.31 2.47 1.32 5.73 3.88 7.63Z" style="fill:#283579"/><path d="M336.72 158.83c.59 5.38 3.75 10.04 6.25 14.75 1.14 3.13 2.97 6.07 2.78 9.44l-10.64-14.06c-1.04-.7-2.19 0-2.82.75l1.52-7.37c1.35-1.93 1.35-4.29 1.72-7.12 2.24.76 1.38 2.64 1.19 3.6Z" style="fill:#2a2954"/><path d="m347.85 193.62 1.73-.41c.06 6.25-.88 12.18-3 18.58l.2 2.71c.26.47 1.11 1.03 2.16.88-4.39 9.44-11.47 17.41-18.54 25.63l-7.47 14.04c-1.69.37-2.75 1.93-3.4 3.86-3.14 1.25-4.57 3.71-5.23 6.87-5.7 3.25-10.07 7.46-14 12.54-3.11 2.67-5.93 5.32-7.81 9.09l-10.87 6.07c-4.12.57-7.22 2.78-10.48 4.85-2.17-.28-3.62-.97-4.88-1.89.22-1.57.75-2.99 2.32-4.14 1.56-.52 2.38-1.77 2.33-2.88l-1.09-3.74c4.4-.16 7.6-2.39 7.77-7.08 2.03-3.21 4.8-5.66 7.71-8.23 1.66-5.4 2.95-10.76 5.8-15.65 3.58-4.8 5.44-10.12 5.16-16.14 3-2.49 4.43-5.51 6.13-8.65 2.92-1.92 4.77-4.44 5.23-7.98 2.7-1.97 4.43-4.41 5.96-7.26 2.69-1.29 3.95-3.47 4.32-5.82 1.83-3.87 4.99-7.12 5.99-11.28l5.63-8.24c2.81 4.58 2.57 8.65 3.71 12.84 2.36 2.35 3.11 5.12 1.67 8.15 2.58 2.21 6.53 2.05 8.6-.64 2.85-5.29 3.01-10.81 4.35-16.09Z" style="fill:#071b66"/><path d="m345.75 183.02-.08 1.97c-.85 1.7-1.24 3.77-1.14 6.21-.1 2.92-.86 5.02-3.09 7.68-3.86-1.65-6.38-4.82-7.37-9.28-1.72-3.44-2.58-7.08-5.33-9.17l3.55-10.72c.62-.76 1.78-1.45 2.82-.75z" style="fill:#030216"/><path d="M345.67 184.99c2.1 2.31 2.39 5.62 2.18 8.63-1.33 5.28-1.49 10.8-4.35 16.09-2.07 2.69-6.02 2.85-8.6.64 1.44-3.03.69-5.8-1.67-8.15-1.14-4.19-.9-8.26-3.71-12.84l-5.63 8.24-.05-4.29c1.26-4.46 4.95-7.98 4.9-12.88 2.75 2.1 3.61 5.73 5.33 9.17.99 4.46 3.51 7.63 7.37 9.28 2.24-2.66 2.99-4.76 3.09-7.68-.09-2.45.29-4.51 1.14-6.21" style="fill:#060a44"/><path d="M385.11 254.77c3.86 3.43 8.6 6.4 11.06 10.93-.7 0-1.34.1-1.81.27-.66.9-.98 2.05-.56 3.51-.67 4.34-2.85 8.11-5.64 11.3-3.61 1.39-6.95 1.13-10.67.06-1.22-.62-2.86-.35-3.05.66l-3.77-1.1-.72-2.32c.54-1.56.57-3.65 3.51-4.16.84 4.13 3.41 5.91 7.17 5.8l-2.69-15.44.21-9.09z" style="fill:#0c2b87"/><path d="M317.9 208.88c-.38 2.35-1.64 4.53-4.32 5.82-1.53 2.85-3.26 5.3-5.96 7.26-.46 3.55-2.32 6.07-5.23 7.98-1.7 3.14-3.13 6.16-6.13 8.65.27 6.02-1.58 11.34-5.16 16.14-2.86 4.88-4.14 10.25-5.8 15.65-2.92 2.57-5.69 5.02-7.71 8.23-.17 4.69-3.37 6.92-7.77 7.08l1.09 3.74c.06 1.11-.76 2.36-2.33 2.88-1.58 1.16-2.1 2.57-2.32 4.14 1.26.92 2.71 1.61 4.88 1.89 3.26-2.07 6.36-4.28 10.48-4.85l10.87-6.07c1.88-3.77 4.7-6.42 7.81-9.09 3.94-5.09 8.3-9.29 14-12.54.65-3.17 2.09-5.62 5.23-6.87.65-1.93 1.71-3.49 3.4-3.86-.7 2.77-2.26 5.3-4.69 7.61-1.89 4.38-4.41 8.1-7.79 11.45-4.4 8.63-9.96 16.14-17.66 21.92-1.92 1.81-3.04 3.74-2.44 5.96-2.26 2.75-5.48 4.77-8.79 7-6.69 6.5-13.9 11.73-21.07 16.86-3.17-1.9-6.82-.77-9.69 2.03-5.29.83-10.13 1.69-14.47 4.83-3.76-1.39-6.57 1.39-10.62-.41 5.22-2.1 8.64-3.27 10.35-8.79 4.15-2.1 8.41-4.09 11.74-7.59 4.52-.99 7.7-3.64 10.96-6.94 1.19-.17 1.97-.62 2.98-1.18.48-.26 1.56-1.49-.31-2.61l-13.62 4.82c-3.96 4.75-10.03 5.91-15.78 6.08l4.88-8.23 15.48-12.41c6.57-3.59 10.72-9.44 15.86-13.98 3.46-1.08 4.9-4.63 7.01-7.62l12.02-18.28c4.28-15.4 13.09-28.18 23.65-40.05 1.92-2.97 3.8-5.9 6.98-6.62Zm-58.02 90.45c1.96.75 3.04-.31 3.28-1.54-.08-.57-.55-1.37-1.23-1.96-.85.34-1.84.68-2.82 1.84-2.05.42-1.12 2.93.77 1.66" style="fill:#0c134d"/><path d="m164.76 327.22 1.56.08c3.58 1.9 8.01 1.6 12.45 1.88 4.21 0 7.97.6 10.52 4.35 3.95-.23 6.61 2.38 7.09 5.78-1.51 2.18-3.2 4.45-6 4.85.1-3.63-1.8-6.94-4.94-9.4-3.65.72-7.02.52-10.68 0-3.38 1.16-6.72 1.51-10.21.18-2.02-2.41-3.43-5.08-4.43-7.6l4.63-.13Z" style="fill:#5e5c84"/><path d="m183.24 327.31 12.15 2.41c1.42 3.27 5.49 2.76 9.53 2.1-2.13 3.91-4.8 6.73-8.54 7.49-.48-3.41-3.14-6.01-7.09-5.78-2.55-3.75-6.32-4.36-10.52-4.35-4.44-.28-8.88.02-12.45-1.88h16.93Z" style="fill:#423c5d"/><path d="M320.53 286.3c-1.55 2.76-3.51 5.32-6.05 7.22-3.14-.23-6.24.91-8.8 3.42-2.84 1.98-6.13 1.87-8.98.94.17-.26.37-.66.42-.98 2.26.38 4.54-.23 6.77-1.72 2.75-2.04 5.61-3.22 8.86-4.3l1.51-1.54c.01-.47-.39-.96-1.05-.83 2.31-2 4.8-3.35 8.2-4.61l-.88 2.41Z" style="fill:#60507d"/><path d="m297.12 296.9 8.85-5.82c2.68.07 5.08-1.05 7.24-2.57.66-.12 1.06.36 1.05.83l-1.51 1.54c-3.25 1.08-6.11 2.26-8.86 4.3-2.22 1.49-4.51 2.1-6.77 1.72" style="fill:#a88497"/><path d="M361.14 274.18c.08-1.98.97-3.98 2.83-5.59l5.3-6.74c1.24-3.34 3.67-5.34 6.24-6.84l-.18 9.23c-1.58 4.03-4.76 6.48-8.56 8.35-.71 1.39-1.7 2.35-2.75 2.95-1.09.32-2.29-.22-2.88-1.37Z" style="fill:#132a73"/><path d="M353.53 282.95c-8.72-2.07-16.12-6.07-24.99-6.71l16.86-3.11 11.16 1.54c-2.11 1.22-3.46 1.71-4.29 3.51-.54.86.24 2.18 1.26 4.77" style="fill:#192257"/><path d="M369.95 278.08c-1.22-.51-2.17-1.65-1.55-3.8 4.78-2.27 7.32-5.79 9.53-9.99l2.69 15.44c-3.76.11-6.33-1.68-7.17-5.8-2.94.51-2.97 2.59-3.51 4.16Z" style="fill:#0a2781"/><path d="M367.24 283.43c-5.16 1.51-10.33.76-12.92-4.57 4.71-3.55 10.51-1.52 12.92 4.57" style="fill:#2c2656"/><path d="M259.88 299.33c-1.89 1.26-2.82-1.25-.77-1.66.98-1.16 1.97-1.5 2.82-1.84.68.59 1.15 1.4 1.23 1.96-.24 1.23-1.32 2.29-3.28 1.54" style="fill:#071b66"/><path d="M91.7 174.21c-.93 2.02-2.4 3.7-4.58 5.55-.13 2.8.63 5.29 2.71 7.96l4.42-6.24c-.03-4.41 3.06-6.45 7.68-6.88.86.94 1.06 2.53 1.56 3.83.45 1.82 1.86 3.02 3.39 3.15 2.02.12 3.68-.38 5.21-1.2 1.33.07 2.44.86 2.9 2.09-3.68 2.07-4.82 7.23-10.81 8.1.31 1.1 1.65 1.78 3.15 2.09-3.54 3.86-10.29 2.99-14.96.22-1.37-.31-2.23.03-2.83.36-1.18.67-1.61 1.82-1.7 3.02l-3.23-15.78c2.29-2.39 3.69-5.71 7.06-6.26Z" style="fill:#f09059"/><path d="m100.69 170.59-8.99 3.62c-3.37.55-4.77 3.87-7.06 6.26-1.77-1.56-2.29-3.89-3.4-5.8-1.86-4.7-1.85-9.91 2-13.51 7.32-.21 14.6 1.42 21.91 2.79-.93 3.68-2.42 5.49-4.47 6.64Z" style="fill:#f5af71"/><path d="M169.79 297.14c-1.19 1.71-3.14 2.34-6.37 2.74 2.08 3.65 4.27 6.19 5.21 10.18l-6.31 6.06-9.5 1.5c-2.51-1.99-4.62-4.52-6.66-7.56l-5.05-4.27c-.64-1.3-1.47-2.48-2.55-3.42-.13-5.3-1.36-10.78-3.34-16.24-1.05-5 .6-9.49 1.03-13.99.17-.57.55-1.06 1.04-1.44.6-.23 1.51-.7 2.32-.69.21 3.07.62 4.61 1.58 6.56 5.54 3.25 10.89 6.49 14.69 11.72.39 2.69 1.83 4.62 4.05 5.16 2.3.61 4.76-.6 7.15-1.71 1.68-.65 2.63-.03 2.68 1.14.15 1.75.1 2.99.03 4.28Z" style="fill:#fcb167"/><path d="M156.61 241.73c-.1-4.46-2.6-7.83-6.9-8.62-1.73-.55-3.1-1.28-4.12-2.21-1.13-.25-2.23-.64-3.24-1.2l-2.54 1.59c-1.2 1.56-2.44 3.42-4.6 4.29l-8.89-3.31-4.76 10.14c-2.74-1.26-3.15-4.77-3.23-7.7.75-2.22.7-4.07-.27-5.65.91-1.17 1.45-2.56 1.45-4.05-2.97 2.27-6.36 4.7-10.55 3.27l-14.79-16.91c-.33-7.41 4.65-14.77 12.59-14.91.65 2.89-1.41 4.83-3.49 6.05-.81 1.14-1.51 1.79-2.32 2.55.54.91.8 1.85 1.93 3.1 3.32-.67 6.01-2.28 8.47-4.53l10.86-10.88c1.14-.89 2.38-1.38 3.25-1.05l1.91 2.42-6.11 25.13c-2.54.89-3.16 3.05-1.99 4.47l1.11.07c2.63-1.68 4.74-3.77 6.16-7.38 3.14.68 5.92.38 7.53-1.44 1.04-1.9 1.16-4.63-.26-7.19l1.81-18.03c-1.37-7.53-.78-14.63 1.45-21.6-1.38-2.19-2.29-5.35-5.56-6.16-3.47 1.65-3.94 5.2-3.76 8.75 1.1 5.76-.36 10.85-5.2 14.11l-4.64 7.66c-2.45-.37-3.96-1.64-5.7-2.41-1.72.52-3.63 1-4.85 2.55-3.54 3.86-10.29 2.99-14.96.22-1.37-.31-2.23.03-2.83.36-1.18.67-1.61 1.82-1.7 3.02.34 3.11.6 6.21.29 9.34 2.04 2.63 1.01 9.13 1.2 9.27 7.26 27.55 22.91 60.27 22.91 60.27 1.46 5.95 26.29 27.23 26.29 27.23-.13-5.3-1.36-10.78-3.34-16.24-1.05-5 .6-9.49 1.03-13.99-1.86.97-4.27 2.5-6.09 1.01-5.1-2.78-5.4-8.99-5.77-14.34 3.06-.99 3.68-4.24 7.96-6.43-.82 3.87-1.72 6.26 1.43 9.22-.63 1.7-.01 3.98 1.64 4.04 1.17-.3 2.1-1.08 3.19-2.35 3.07-4.82 9.56-8.99 15.12-3.82 2.02-4.1 5.95-5.7 10.92-7.73l-8.04-10.01Zm-27.29-34.65c2-.28 3.11.86 3.81 2.19.21 1.6.19 3.4-2.31 6.19-3.5-.52-4.14-5.56-1.5-8.38" style="fill:#fbb275"/><path d="m119.26 223.72.23 1.3c-2.97 2.27-6.36 4.7-10.55 3.27l-14.79-16.91c-.33-7.41 4.65-14.77 12.59-14.91.65 2.89-1.41 4.83-3.49 6.05-.81 1.14-1.51 1.79-2.32 2.55.54.91.8 1.85 1.93 3.1 3.32-.67 6.01-2.28 8.47-4.53l10.86-10.88c1.14-.89 2.38-1.38 3.25-1.05l1.91 2.42-6.11 25.13c-2.54.89-3.16 3.05-1.99 4.47Z" style="fill:#fccf87"/><path d="M131.33 152.77c.72 1.51 1.36 3.13 1.94 5.21 7.52 6.46 9.47 16.66 6.68 26.15-.04 4.86-.12 9.48-1.19 14.24 2.12 7.16 1.79 14.27-2.96 20.33 1.64 3.82.06 7.06-2.99 7.91-1.52-.57-3.12-.28-4.22.9-1.36 1.22-2.03 3-2.27 4.75l-4.76 10.14c-2.74-1.26-3.15-4.77-3.23-7.7.75-2.22.7-4.07-.27-5.65.91-1.17 1.45-2.56 1.45-4.05l-.23-1.3 1.11.07c1.17 1.12 1.85 2.8 4.25 4.18 2.93-5.35 5.89-9.31 11.25-12.01l1.69-42.31c1.84-2.04 1.41-4.65-.51-5.5-1.38-2.19-2.29-5.35-5.56-6.16-3.47 1.65-3.94 5.2-3.76 8.75 1.1 5.76-.36 10.85-5.2 14.11l-4.64 7.66c-2.45-.37-3.96-1.64-5.7-2.41l5.99-5.97c.93.05 1.43-.89.93-1.56a5.3 5.3 0 0 0-2.05-1.58c1.1-1.69 2.33-1.1 2.92-1.1.58-1.37.79-2.21 1.06-3.69 2.04-1.1 3.35-2.78 3.22-4.79-.3-1.64-1.89-3-4.28-4.13l4.04-6.98c-2.38-1.71-3-4.53-1.27-6.54 2.93-1.41 5.66-.94 8.57-.99Z" style="fill:#f09059"/><path d="M120.37 223.79c2.63-1.68 4.74-3.77 6.16-7.38 3.14.68 5.92.38 7.53-1.44 1.04-1.9 1.16-4.63-.26-7.19l1.81-18.03c-1.37-7.53-.78-14.63 1.45-21.6 1.92.85 2.35 3.45.51 5.5l-1.69 42.31c-5.36 2.7-8.33 6.66-11.25 12.01-2.4-1.38-3.08-3.06-4.25-4.18Z" style="fill:#f9a866"/><path d="m118.18 184.13-5.99 5.97c-1.72.52-3.63 1.01-4.85 2.55-1.5-.31-2.84-.99-3.15-2.09 5.99-.87 7.13-6.03 10.81-8.1.81-.23 1.66-.16 2.32.2.44.43.69.92.86 1.47" style="fill:#c25628"/><path d="M130.82 215.47c-3.5-.52-4.14-5.56-1.5-8.38 2-.28 3.11.86 3.81 2.19.21 1.6.19 3.4-2.31 6.19" style="fill:#fccf87"/><path d="M136.21 151.53c1.42 1.07 3.31 1.53 5.69 1.49 2 1.65 2.43 3.92 2.79 5.99-.62-.08-1.27.27-1.4.39l.3 2.81c.96 1.43.79 2.9-.1 3.65-2.74-5.38-6.94-10.42-12.16-13.09-2.91.05-5.64-.42-8.57.99-1.73 2.01-1.12 4.83 1.27 6.54l-4.04 6.98c2.39 1.14 3.98 2.49 4.28 4.13.13 2.01-1.18 3.69-3.22 4.79-.27 1.48-.48 2.32-1.06 3.69-.59 0-1.82-.6-2.92 1.1.92.4 1.61 1.01 2.05 1.58.49.67 0 1.61-.93 1.56-.17-.55-.43-1.04-.86-1.47-.66-.36-1.52-.43-2.32-.2-.46-1.24-1.58-2.03-2.9-2.09 1.57-1.87 4.27-2.15 7.29-2.14.44-3.53-1.81-5.31-4.41-6.62-3.74-1.36-7.45-1.25-10.94-.77l-3.36-.25c2.06-1.15 3.54-2.95 4.47-6.64-7.31-1.37-14.59-3-21.91-2.79 4.34-3.28 10.49-3.33 16.03-1.84 3.44 1.28 6.38.39 8.13-3.05 5.93-1.08 11.4-2.18 16.6-4.93l12.21.19Z" style="fill:#bb6234"/><path d="m177.09 155.11-.07 1.3c-.68 1.72-1.38 3.58-2.81 5.36-2.79.82-4.42 1.97-6.73 4.26-.27-2.78-.04-4.49-1.14-6.09.3-2-.42-4.21-2.02-4.9-2.3-.82-5.02-.27-5.51 2.24 1.16 2.98 1.51 5.23 1.49 7.67l-2.16 1.37c-2.33-2.2-5.94-2.22-9.39-3.2-1.28-.4-2.23-.62-3.28-1.05-.77-.58-1.1-1.86-.77-3.06-.36-2.07-.79-4.34-2.79-5.99-2.38.03-4.27-.42-5.69-1.49l8.53.06c1.04.05 1.76-.28 2.26-.72.11-.49.14-1.1.05-1.67l7.26.16c3.51-2.68 7.37-2.98 11.2-2.93 2.81.7 5.73.56 8.46-1.82 4.49.09 9.01-3.05 13.86-.13-7.53 2.43-14.5 2.47-18.75 9.78z" style="fill:#7c3521"/><path d="M112.09 180.37c-1.53.82-3.19 1.32-5.21 1.2-1.53-.13-2.94-1.33-3.39-3.15-.14-1.96.8-3.86 2.65-4.69-1.41-.76-2.08-.87-3.26-1.14.3-.61.76-1.21 1.16-1.76 3.48-.47 7.2-.59 10.94.77 2.59 1.31 4.85 3.09 4.41 6.62-3.02-.02-5.72.27-7.29 2.14Z" style="fill:#41130b"/><path d="m100.69 170.59 3.36.25c-.4.56-.86 1.15-1.16 1.76 1.19.27 1.86.37 3.26 1.14-1.85.83-2.79 2.73-2.65 4.69-.5-1.3-.71-2.9-1.56-3.83-4.63.43-7.71 2.48-7.68 6.88l-4.42 6.24c-2.08-2.67-2.84-5.16-2.71-7.96 2.18-1.85 3.65-3.53 4.58-5.55l8.99-3.62Z" style="fill:#742a0e"/><path d="M327.56 122.62c-.34 2.53.11 5.08 2.37 6.19l4.58 10.63 2.01 13.62c1.36.79 1.71 1.91 1.89 2.77.51 1.19.05 2.97-1.7 3 .18-.96 1.05-2.84-1.19-3.6-.37 2.84-.37 5.19-1.72 7.12-.12-.5-.29-1.13-.86-1.94-.45.86-1.41 1.69-2.83 1.54-.81 8.52-.91 17.15-5.76 24.9-1.78 2.29-4.5 3.69-6.88 2.64.3-3.67 1.66-5.1 3.52-8-1.81-1.54-3.73-1.23-5.48-.45-.96.83-1.81 2.41-2.27 4.45.15 3.81-.52 7.25-3.45 9.82-1.87.32-3.65-.7-4.63-1.65-1.42-1.75-1.67-3.78-1.54-5.75 1.98-1.56 4.54-1.72 7.68-1.97l.74-6.9c4.68.89 8.55.26 11.64-2.95 2.56-2.27 4.36-5.79 3.82-10.12.32-2.91-.2-5.71-1.46-8.1-5.38-4.36-11.44-5.45-18.2-5.72-.32 2.73-.27 4.65-1.38 6.61-1.24-1.98-2.75-3.24-4.49-3.25-2.81 5.03-.32 8.49 2.72 11.52-2.7.61-4.76-1.39-4.62-4.63l-6-8.78c-.33-1.41-.93-2.53-2.12-3.37-.8-.1-1.92.3-2.68 1.14-.6-2.42.26-4.86 1.86-7.34.06-1.52.35-2.7 1.38-4.07.87.06 2.51.57 4.29 1.85 2.54-3.33 5.54-5.33 9.96-5 2.4-1.82 3.57-4.33 5.37-6.72 2.95-.99 5.38-2.56 5.8-5.24.92-.59 1.75-1.31 2.38-2.26 2.4.47 5.03 1.24 7.26.03Zm.99 32.57c.33.88.94 1.41 1.38 1.77.51 1.05 1.29.13 1.16-.09.17-1.19.21-1.95-.18-2.91 3.71-7.6 3.26-15.63-1.85-21.71-4.17-1.96-7.95-3.43-11.85.15 4.4 3.54 7.45 7.09 8.58 12.29 4.44 2.07 5.48 6.4 2.75 10.5Zm-15.33-13.67c.29-2.5-.18-3.87-1.02-4.74-2.46.29-3.2 1.26-3.99 2.18-.49 1.58.1 2.82 1.38 3.47.84 1.26 3.35 1.42 3.63-.92Z" style="fill:#875752"/><path d="M268.24 281.44c-5.14 4.55-9.29 10.39-15.86 13.98l-15.48 12.41c-5.85 3.64-11.96 6.75-18.55 10.08-6.81 2.73-13.34 5.47-19.92 9.02-1.6.44-2.65 1.49-3.04 2.79l-12.15-2.41 1.17-2.13c3.44-1.03 7.98-.2 11.17-2.21 10.76-4.35 20.15-9.67 29.42-16.45 11.07-5.74 22.1-10.83 31.23-19.33 6.53-5.53 13.25-10.6 17.29-17.61-.03-1.43 1.17-2.32 2.4-2.37.77 1.18.55 2.78-.69 4.07-2.89 3.28-5.6 6.44-6.98 10.15Z" style="fill:#170914"/><path d="M158.74 232.25c-4.32-.84-8.73-1.36-13.15-1.35-1.13-.25-2.23-.64-3.24-1.2l-4.67-3.8c.72-2.45 2.25-4.21 3.46-6.02l5.98-2.42c1.84-.21 3.28.32 4.25 1.39.4.8.57 1.81.48 2.8-1.15-.14-2.34.14-3.19.71-1.09.76-1.86 1.84-1.35 3.78 5.49-1.48 10.67-1.3 16.7-1.44-.27-2.95-2.63-2.55-4.12-3.07 4.35.07 9.04-.54 12.95-3.35 1.24-2.76.6-5.32-.48-8-.81-2.8-.65-5.83 1.7-6.95 1.54 1.28 2.47 3.32 3.78 5.19 5.04 4.01 8.3 8.38 11.97 14.23-4.23-.27-6.35.37-8.34 3.03-1.34 2.36-3.61 4.1-6.61 3.86-5.16 3.45-10.66 3.43-16.12 2.63Z" style="fill:#7c362d"/><path d="M158.74 232.25c1.18 3.59 4.27 6.02 7.74 8.15l3.65 7.12c3.46.01 5.08 2.37 4.58 4.95l-2.51.18c-5.01.35-9.32 3.41-13.49 6.88-2.31.79-3.1 2.42-1.9 5.17-5.03-.61-8.82.07-13.2 1.59-4.19.69-7.98 1.2-12.14-.57-1.53 2.7-1.26 5-1.31 7.43-5.1-2.78-5.4-8.99-5.77-14.34 3.06-.99 3.68-4.24 7.96-6.43-.82 3.87-1.72 6.26 1.43 9.22-.63 1.7-.01 3.98 1.64 4.04 1.17-.3 2.1-1.08 3.19-2.35 3.07-4.82 9.56-8.99 15.12-3.82 2.02-4.1 5.95-5.7 10.92-7.73l-8.04-10.01c-.1-4.46-2.6-7.83-6.9-8.62-1.73-.55-3.1-1.28-4.12-2.21 4.43-.01 8.83.51 13.15 1.35" style="fill:#cb6d3f"/><path d="M143.49 165.86c-.29 2.67.02 5.51.93 8.57-1.62 6.17-2.16 12.24-.03 18.53l-2.13 15.16c1.42 4.34.03 8.03-1.13 11.77-1.21 1.81-2.74 3.56-3.46 6.02l4.67 3.8-2.54 1.59c-.83-3.11-4.39-3.33-7-4.67 3.06-.85 4.63-4.09 2.99-7.91 4.75-6.05 5.08-13.16 2.96-20.33 1.07-4.76 1.16-9.39 1.19-14.24 2.79-9.5.84-19.7-6.68-26.15-.58-2.08-1.22-3.7-1.94-5.21 5.21 2.67 9.41 7.7 12.16 13.09Z" style="fill:#c3694b"/><path d="M132.81 226.62c2.61 1.35 6.17 1.56 7 4.67-1.2 1.56-2.44 3.42-4.6 4.29l-8.89-3.31c.24-1.76.91-3.53 2.27-4.75 1.11-1.18 2.71-1.47 4.22-.9" style="fill:#7c362d"/><path d="m171.11 263.78 6.15.03c-1.88 2.33-4.27 3.42-7.22 4.59-1.7 3.88-3.38 7.52-6.33 10.56l-8.66.87c-1.75.55-2.41 1.86-2.15 3.46.69.4 1.58.78 3.01 1.43 1.97-.79 4.13-1.15 5.6.14l-.02 1.7c-.27 1.17-.11 2.44.37 3.49.95 1.32 3.16 1.18 4.73.02l6.96 2.75c-.42 2.07-2.04 3.36-3.77 4.31.07-1.29.13-2.53-.03-4.28-.05-1.16-1-1.78-2.68-1.14-2.4 1.12-4.85 2.33-7.15 1.71-2.22-.54-3.66-2.46-4.05-5.16-3.8-5.22-9.15-8.47-14.69-11.72-.96-1.95-1.37-3.49-1.58-6.56-.81 0-1.72.46-2.32.69 4.28-3.07 9.6-3.87 15.28-4.13 5.74-.89 11.29-.55 16.26-2.57l2.29-.2Zm-10.88 9.55-13.88-2.31c-.38 5.6 3.85 5.97 6.22 5.94 3.32.03 7.12-.08 7.66-3.63" style="fill:#f58566"/><path d="M155.38 320.04c-1.05-.56-1.92-1.4-2.56-2.42l9.5-1.5 6.31-6.06c-.95-3.99-3.13-6.53-5.21-10.18 3.23-.4 5.19-1.03 6.37-2.74 1.73-.95 3.35-2.24 3.77-4.31l-6.96-2.75c-1.57 1.16-3.79 1.29-4.73-.02-.48-1.06-.64-2.33-.37-3.49 3.09-.54 5.76 1.37 8.67 3.29 2.84-.36 5.49.19 7.15 1.7 1.41 1.81 1.18 4.49-.12 6.89l2.35 11.83-11.37 9.47c-5.24.72-8.77 2.73-12.78.3Z" style="fill:#ec8753"/><path d="M172.2 252.65c-.53.9-.91 2.07-1.05 3.61.34 3.25-.73 5.66-2.32 7.73-4.97 2.02-10.52 1.69-16.26 2.57-5.68.27-11 1.07-15.28 4.13-.49.38-.87.87-1.04 1.44-1.86.97-4.27 2.5-6.09 1.01.06-2.43-.21-4.73 1.31-7.43 4.17 1.77 7.96 1.25 12.14.57 4.38-1.52 8.17-2.2 13.2-1.59-1.2-2.75-.41-4.38 1.9-5.17 4.17-3.47 8.48-6.54 13.49-6.88Z" style="fill:#9f321e"/><path d="M275.92 267.22c-1.24.05-2.43.94-2.4 2.37-3.56.33-6.04 3.06-8.12 6.27-3.53 1.73-6.66 3.62-9.52 6.29-4.96 1.57-8.84 4.24-12.58 7.76-3.47 3-6.88 5.65-11.71 6.38-3.46 4.35-8.22 6.62-13.71 7.82-5.03 4.59-10.49 7.65-16.82 9.47l-13.51 7.33c-2.29.54-3.28 2.52-3.13 4.28l-1.17 2.13h-16.93l-1.56-.1c.43-.61 1.17-1.03 1.38-2.4-2.47.42-4.61.15-5.96-1.35 2.72-.19 5.71.17 8.64 1.21 5.9-1.21 9.23-4.98 11.92-9.62l19.21-8.39 12.92-7.37 12.91-10.42c-1.45-6.37.39-11.21 5.26-15.35 3.02-2.81 8.11-1.75 12.13-.54l8.12-3.51c3.25.62 6.35-.82 8.66-3.94 5.1-.21 8.71-2.58 13.34-4.8l10.65-10.8c.28-3.04 2-4.88 4.32-5.61l-6.68 14.07c-2.83 2.6-5.23 5.45-5.67 8.81Z" style="fill:#6f4038"/><path d="M178.39 282.44c3.41 3.99 6.84 7.35 12.84 7.69 2.69 1.18 4.33 3.57 3.56 6.57-2.48 2.25-4.02 4.92-5.17 8.03-3.94 3-6.51 6.68-8.88 10.35-2.69 4.64-6.02 8.41-11.92 9.62-2.93-1.05-5.92-1.4-8.64-1.21-1.71-1-3.73-1.68-4.8-3.44 4.01 2.43 7.54.42 12.78-.3l11.37-9.47-2.35-11.83c1.3-2.4 1.53-5.08.12-6.89-1.66-1.5-4.31-2.06-7.15-1.7-2.92-1.92-5.58-3.83-8.67-3.29l.02-1.7c3.22.87 6.51.12 8.66-3.14 3.08-.44 5.61 0 8.22.71Z" style="fill:#b96948"/><path d="m179.53 142.12 22.31.21 13.97 4.25c-.99.08-1.7.92-.82 1.92 2.51.42 4.58.3 6.89 1.36-6.35 5.85-13.54 4.52-20.36-.37.38 3.96.42 5.57-1.61 6.82-2.07.51-4.64.49-6.1 2.24l-6.01.25-1.28-3.73-1.16-4.73c-3.72.5-5.67 2.96-8.28 4.77l-8-.85c4.25-7.32 11.22-7.35 18.75-9.78-4.85-2.92-9.37.22-13.86.13-2.73 2.38-5.65 2.52-8.46 1.82-.51-.52-1.44-.7-1.59-2.15 3.29.81 6.06.7 9.04-.44 2.07-1.78 4.41-2.09 6.57-1.73Z" style="fill:#461e1a"/><path d="M158.13 166.32c-1.95 1.94-2.87 4.7-2.55 8.03.48 4.04-.16 7.53-2.49 10.99 1.7 4.58 5.01 8.45 9.02 11.27 5.07.76 9.19 3.07 11.94 6.7-2.35 1.12-2.51 4.16-1.7 6.95 1.07 2.69 1.71 5.24.48 8-3.92 2.81-8.6 3.42-12.95 3.35l-8.04.03c.09-.98-.08-2-.48-2.8-.96-1.06-2.4-1.6-4.25-1.39l-5.98 2.42c1.16-3.73 2.55-7.42 1.13-11.77l2.13-15.16c-2.13-6.29-1.6-12.35.03-18.53-.91-3.06-1.21-5.91-.93-8.57.9-.75 1.06-2.22.1-3.65l-.3-2.81c.13-.12.78-.47 1.4-.39-.33 1.2 0 2.47.77 3.06 1.05.43 2 .65 3.28 1.05 3.45.98 7.06 1 9.39 3.2Z" style="fill:#804c49"/><path d="M160.41 174.12c.57 2.11.6 4.65 2.09 6.28l-2.1 6.92 12.16 9.57c.37 2.09 2.06 3.18 3.76 2.91l14.16 16.57 9.68 14.01c-.54 2-1.41 3.81-1.4 6.37 6.4.55 11.19 4.33 13.46 10.05-1.2 4.26-1.71 8.32-1.44 12.73l-8.4 5.35c2.35 2.54 4.49 4.95 7.25 5.35 3.6.48 7.39-.09 9.94-2.89 1.5-6.09 1.06-12.02 0-17.99l2.18-7.71c-2.55-2.7-4.42-5.56-4.87-9.45-2.41-2.45-3.34-5.77-1.5-8.93-.26-5.81 1.72-10.85 4.42-15.97.34-5.05 1.65-9.52 3.23-13.84 2.37 2.78 2.43 6.8 1.74 11.09l4.25 9.58c-.42 3.16.35 5.95 2.24 7.86 1.59 1.52 4.24 1.54 7.08 1.2 1.86 3.67 4.87 4.73 8.5 5.34 4.14 5.6 6.54 12 8.09 18.1-2.19 3.29-4.02 5.29-7.08 6.88-1.12 3.83-4 6.9-3.7 10.9 2.53.59 4.19.94 5.75 1.42 1.24.57 1.87 2.09 1.41 3.67l-8.12 3.51c-4.02-1.21-9.12-2.27-12.13.54-4.88 4.13-6.71 8.98-5.26 15.35l-12.91 10.42-12.92 7.37-19.21 8.39c2.38-3.67 4.95-7.35 8.88-10.35 1.15-3.11 2.69-5.78 5.17-8.03.77-3-.86-5.39-3.56-6.57-6-.34-9.42-3.7-12.84-7.69-2-.99-4.07-2.06-5.37-4.81 5.09-3.98 7.36-9.43 7.01-15.19 2.2-.52 4.49-.32 6.99.79 2.87.24 5.34-1.09 7.34-3.53 6.46.84 12-2.02 14.06-8.15-1.13-4.81-3.11-9.95-6.83-11.7-8.62-1.06-15.88-2.05-23.65.26-1.59 1.76-1.18 3.85.16 4.86 1.6.81 3.58.92 5.47-.98 1.37 1 1.82 2.51 1.54 4.26-.23 1.19-1.25 2.51-2.88 3.54-2.58 1.01-5.16.78-7.53.69.51-2.58-1.12-4.94-4.58-4.95l-3.65-7.12c-3.47-2.13-6.57-4.56-7.74-8.15 5.46.8 10.96.83 16.12-2.63 3.01.23 5.28-1.5 6.61-3.86 1.99-2.66 4.11-3.3 8.34-3.03-3.68-5.85-6.94-10.22-11.97-14.23-1.32-1.87-2.25-3.91-3.78-5.19-2.75-3.63-6.88-5.94-11.94-6.7-4.01-2.82-7.32-6.69-9.02-11.27 2.33-3.46 2.97-6.95 2.49-10.99-.31-3.33.6-6.09 2.55-8.03l2.16-1.37c.47 2.9-1.88 6.43.12 9.17Z" style="fill:#8f5345"/><path d="m187.81 158.81 6.01-.25c2.7-.45 3 1.63.71 1.71-1.41-.36-2.12.32-2.43.84-.83.42-.45 1.28.13 1.37.92 0 1.85-.07 3.28.97-2.53 3.44-7.36 3.46-11.36 6.86 4.23 1.18 8.31.16 12.34.41-3.59 1.63-7.53 3.15-12.03 4-4.07-1.99-7.74-3.14-12.23-1.07.07 3.21 1.81 6.1 3.71 8.91-1.46 2.53-1.54 4.82-.6 7.21l-2.35 2.68c-2.6-4.84-5.59-9.33-10.48-12.05-1.49-1.63-1.52-4.17-2.09-6.28 1.55-2.47 1.11-5.78 1.21-9.03l4.72-5.14c1.11 1.6.87 3.31 1.14 6.09 2.31-2.29 3.94-3.44 6.73-4.26 1.43-1.78 2.13-3.65 2.81-5.36l1.58-.08c.02 1.61.67 3.24 2.38 4.22 2.57-.15 4.87-.67 6.82-1.75" style="fill:#e18651"/><path d="m166.33 159.95-4.72 5.14c-.09 3.26.34 6.56-1.21 9.03-2-2.74.35-6.27-.12-9.17.02-2.44-.33-4.69-1.49-7.67.49-2.51 3.21-3.05 5.51-2.24 1.6.69 2.32 2.9 2.02 4.9Z" style="fill:#b26136"/><path d="M186.53 155.08c-2.69 0-5.34.53-7.93 1.25l-1.58.08.07-1.3c2.61-1.81 4.56-4.27 8.28-4.77l1.16 4.73Z" style="fill:#855442"/><path d="M304.7 167.01c.45 3.11 2.35 5.97 1.79 9.67-3.19 3.28-4.96 7.62-2.86 11.22-.13 1.97.12 4.01 1.54 5.75.98.95 2.76 1.98 4.63 1.65 2.93-2.57 3.61-6.01 3.45-9.82.46-2.04 1.3-3.62 2.27-4.45 1.74-.78 3.66-1.09 5.48.45-1.86 2.9-3.21 4.33-3.52 8 2.37 1.05 5.1-.35 6.88-2.64 4.84-7.76 4.94-16.38 5.76-24.9 1.42.16 2.37-.68 2.83-1.54.57.81.74 1.44.86 1.94l-1.52 7.37-3.55 10.72c.05 4.9-3.64 8.42-4.9 12.88-1.45 1.76-2.45 3.91-3.49 6.38-1.35 3.32-3.39 5.82-5.93 7.48-1.6-.46-3.21-.1-4.46 1.37-2.81 3.49-6.79 5.09-10.75 7.33-.7 7.49-3.77 13.81-10.29 17.33-.51 2.33-1.03 4.23-2.56 6.2-7.28.17-13.74-4.44-16.15-11.21-5.32-8.42-6.28-18.88-.71-27.03-1.51-5.39-.81-10.33-.94-15.66-3.27-4.78-3.7-10.21 1.06-14.74-3.79-3.81-4.37-7.66-1.75-12.12-.99-2.03-2.7-3.38-2.1-6.8 6.58 1.44 11.39 5.97 11.59 12.52 3.16 2.61 4.13 6.13 4.19 10.14.44 2.01 1.37 3.48 2.65 4.3 1.77.73 4.09.07 5.34-1.96l-.6-5.91c-.64-2.92.41-5.73 2.54-8.35-1.59-4-2.24-7.59-2.2-11.19.76-.84 1.89-1.25 2.68-1.14 1.19.85 1.79 1.96 2.12 3.37l6 8.78c-.14 3.24 1.92 5.24 4.62 4.63Z" style="fill:#876766"/><path d="M303.64 187.89c-2.11-3.6-.33-7.94 2.86-11.22.56-3.7-1.34-6.55-1.79-9.67-3.03-3.03-5.52-6.49-2.72-11.52 1.74 0 3.26 1.27 4.49 3.25 1.11-1.96 1.06-3.88 1.38-6.61 6.76.27 12.81 1.37 18.2 5.72 1.27 2.39 1.78 5.18 1.46 8.1.54 4.33-1.26 7.85-3.82 10.12-3.09 3.22-6.96 3.84-11.64 2.95l-.74 6.9c-3.15.25-5.71.42-7.68 1.97Z" style="fill:#703b3b"/><path d="M317.92 124.85c-.42 2.68-2.85 4.25-5.8 5.24-1.8 2.39-2.97 4.89-5.37 6.72-4.43-.33-7.42 1.67-9.96 5-1.78-1.28-3.42-1.79-4.29-1.85-1.03 1.37-1.32 2.54-1.38 4.07-1.6 2.48-2.46 4.93-1.86 7.34-.04 3.6.61 7.19 2.2 11.19-2.13 2.62-3.18 5.43-2.54 8.35-.74.3-1.38.8-1.73 1.23-1.25-1.18-1.55-2.37-1.43-3.85l-9.58-12.1c.71-4.29-1.49-7.17-5.04-8.36-2.59-4.32-6.91-5.18-11.19-4.69.06-.6.47-1.07 1.37-1.28 5.63.81 10.48-.58 15.76-2.28 3.11-1.18 5.9-1.4 8.42 1.27l10.81-5.99c4.24-.02 7.29-2.42 11.12-3.48 2.95-3.3 6.45-5.87 10.48-6.51Z" style="fill:#483a3c"/><path d="M328.55 155.19c2.73-4.11 1.68-8.44-2.75-10.5-1.13-5.2-4.18-8.76-8.58-12.29 3.9-3.58 7.68-2.11 11.85-.15 5.11 6.08 5.56 14.11 1.85 21.71.39.96.35 1.73.18 2.91.13.22-.66 1.14-1.16.09-.45-.36-1.05-.89-1.38-1.77Z" style="fill:#72302f"/><path d="M313.22 141.52c-.28 2.34-2.79 2.17-3.63.92-1.27-.65-1.87-1.9-1.38-3.47.79-.92 1.53-1.89 3.99-2.18.84.87 1.31 2.24 1.02 4.74Z" style="fill:#483a3c"/><path d="M323.89 197.6c-.99 4.16-4.16 7.4-5.99 11.28-3.19.72-5.06 3.65-6.98 6.62-10.55 11.87-19.37 24.65-23.65 40.05l-12.02 18.28c-2.11 2.99-3.55 6.54-7.01 7.62 1.38-3.72 4.09-6.87 6.98-10.15 1.24-1.29 1.47-2.89.69-4.07.44-3.36 2.84-6.21 5.67-8.81l6.68-14.07c6.74-13.81 15.22-26.35 26.15-37.18 2.54-1.66 4.58-4.16 5.93-7.48 1.05-2.47 2.05-4.62 3.49-6.38l.05 4.29Z" style="fill:#19102f"/><path d="M273.51 269.59c-4.04 7.01-10.76 12.08-17.29 17.61-9.13 8.5-20.16 13.58-31.23 19.33-9.27 6.78-18.66 12.09-29.42 16.45-3.19 2-7.73 1.17-11.17 2.21-.15-1.77.84-3.74 3.13-4.28l13.51-7.33c6.33-1.82 11.79-4.88 16.82-9.47 5.49-1.2 10.26-3.46 13.71-7.82 4.83-.72 8.24-3.38 11.71-6.38 3.74-3.52 7.61-6.19 12.58-7.76 2.87-2.67 6-4.56 9.52-6.29 2.09-3.21 4.57-5.94 8.12-6.27Z" style="fill:#482728"/><path d="M259.97 143.13c4.28-.49 8.6.37 11.19 4.69 3.55 1.19 5.75 4.07 5.04 8.36l9.58 12.1c-.13 1.48.18 2.68 1.43 3.85.36-.42 1-.93 1.73-1.23l.6 5.91c-1.25 2.03-3.57 2.68-5.34 1.96-1.28-.82-2.21-2.29-2.65-4.3-.06-4.01-1.04-7.53-4.19-10.14-.2-6.55-5.01-11.08-11.59-12.52-.6 3.42 1.11 4.77 2.1 6.8-2.62 4.46-2.04 8.32 1.75 12.12-4.76 4.54-4.34 9.96-1.06 14.74.14 5.33-.56 10.27.94 15.66-5.56 8.15-4.6 18.61.71 27.03 2.41 6.77 8.87 11.38 16.15 11.21 1.53-1.97 2.04-3.86 2.56-6.2 6.52-3.52 9.59-9.83 10.29-17.33 3.96-2.24 7.94-3.83 10.75-7.33 1.25-1.46 2.87-1.83 4.46-1.37-10.93 10.82-19.41 23.37-26.15 37.18-2.32.73-4.04 2.57-4.32 5.61l-10.65 10.8c-4.63 2.22-8.24 4.59-13.34 4.8-2.31 3.13-5.42 4.57-8.66 3.94.45-1.58-.18-3.1-1.41-3.67-1.56-.48-3.22-.83-5.75-1.42-.3-4.01 2.58-7.07 3.7-10.9 3.06-1.59 4.89-3.58 7.08-6.88-1.54-6.1-3.95-12.5-8.09-18.1-3.63-.61-6.64-1.67-8.5-5.34-2.84.34-5.48.33-7.08-1.2-1.89-1.92-2.66-4.71-2.24-7.86l-4.25-9.58c.69-4.29.63-8.31-1.74-11.09.6-1.56.95-3.36.91-5.66 3.79-7.25 4.01-15.81.02-22.84-.94-1.56-2.05-2.5-3.83-2.24-.78.28-1.99 1.11-2.74 2.11-2.94.43-5.91 1.02-8.62 2.2l-.42-2.04c1.95-2.26 4.96-3 8.19-4.11 5.23-1.45 10.89-2.97 14.17-7.52 3.9-5.02 10.99-7.2 17.36-6.56 1.53-.49 1.59-1.72 1.32-2.62l10.61-1.05Z" style="fill:#8f5345"/><path d="M249.36 144.18c.26.9.21 2.13-1.32 2.62-6.37-.64-13.46 1.54-17.36 6.56-3.28 4.55-8.94 6.07-14.17 7.52-3.23 1.11-6.24 1.86-8.19 4.11l-1.85.98c-1.51-.27-2.12-1.4-2.5-2.86-.78-2.88-1.61-5.79-4.05-6.79 2.03-1.25 1.99-2.86 1.61-6.82 6.82 4.88 14.01 6.22 20.36.37-2.32-1.07-4.38-.95-6.89-1.36-.88-1-.17-1.85.82-1.92l8.27 1.38 25.28-3.78Z" style="fill:#613933"/><path d="m151.83 221.65 8.04-.03c1.49.53 3.85.13 4.12 3.07-6.03.15-11.21-.04-16.7 1.44-.5-1.93.27-3.02 1.35-3.78.85-.57 2.03-.85 3.19-.71Z" style="fill:#50100c"/><path d="M180.04 262.43c-2.93-.28-6.92-1.23-8.92 1.35l-2.29.2c1.59-2.07 2.66-4.48 2.32-7.73.14-1.54.52-2.71 1.05-3.61l2.51-.18c2.36.09 4.94.32 7.53-.69 1.63-1.04 2.65-2.35 2.88-3.54.28-1.75-.18-3.26-1.54-4.26-1.89 1.9-3.87 1.8-5.47.98-1.33-1.01-1.75-3.1-.16-4.86 7.77-2.3 15.03-1.32 23.65-.26 3.72 1.75 5.7 6.89 6.83 11.7-2.05 6.13-7.6 8.99-14.06 8.15-2 2.44-4.48 3.77-7.34 3.53-2.5-1.11-4.79-1.3-6.99-.79Z" style="fill:#6c392f"/><path d="M180.04 262.43c.35 5.76-1.92 11.21-7.01 15.19 1.3 2.76 3.36 3.83 5.37 4.81-2.61-.72-5.14-1.15-8.22-.71-2.15 3.26-5.44 4.01-8.66 3.14-1.47-1.29-3.63-.93-5.6-.14-1.43-.66-2.32-1.03-3.01-1.43-.26-1.61.4-2.91 2.15-3.46l8.66-.87c2.95-3.04 4.64-6.68 6.33-10.56 2.95-1.17 5.34-2.26 7.22-4.59l-6.15-.03c2-2.58 6-1.63 8.92-1.35" style="fill:#b54f37"/><path d="M160.23 273.33c-.54 3.55-4.34 3.66-7.66 3.63-2.37.03-6.6-.33-6.22-5.94z" style="fill:#fcb167"/><path d="M199.92 156.32c2.44.99 3.27 3.91 4.05 6.79.38 1.46 1 2.59 2.5 2.86l1.85-.98.42 2.04c-1.06.26-2.08.7-2.95 1.4-2.05.17-4.12.73-5.64 2.17l-3.68.13c-4.02-.25-8.11.77-12.34-.41 4-3.4 8.83-3.42 11.36-6.86-1.43-1.04-2.36-.96-3.28-.97-.58-.09-.96-.95-.13-1.37.31-.52 1.02-1.19 2.43-.84 2.28-.09 1.99-2.16-.71-1.71 1.46-1.76 4.03-1.73 6.1-2.24Z" style="fill:#984d36"/><path d="m186.53 155.08 1.28 3.73c-1.95 1.07-4.25 1.59-6.82 1.75-1.72-.99-2.36-2.62-2.38-4.22 2.59-.72 5.24-1.25 7.93-1.25Z" style="fill:#fff"/><path d="M200.16 170.59c-.22 1.9-.33 4.11 1.87 5.16 2.05-2.44 4.59-2.72 6.19-1.76 2.7 1.23 3.35 4.28 1.83 6.98.91 3.41 0 6.06-2.2 8.66-3.95 3.81-6.07 8.49-6.27 13.95-2.23 5.81-5.54 10.88-11.12 12.8l-14.16-16.57c-1.48-2.32-2.75-4.75-3.34-7.35l2.35-2.68c-.95-2.39-.86-4.68.6-7.21-1.9-2.81-3.64-5.7-3.71-8.91 4.49-2.07 8.16-.92 12.23 1.07 4.5-.86 8.45-2.38 12.03-4l3.68-.13Z" style="fill:#fcb379"/><path d="M223.01 193.44c-1.58 4.33-2.88 8.79-3.23 13.84-2.7 5.13-4.68 10.17-4.42 15.97-1.83 3.16-.91 6.48 1.5 8.93.45 3.89 2.32 6.74 4.87 9.45l-2.18 7.71c1.07 5.97 1.5 11.9 0 17.99-2.55 2.81-6.34 3.38-9.94 2.89-2.76-.4-4.9-2.82-7.25-5.35l8.4-5.35c-.27-4.41.24-8.47 1.44-12.73-2.27-5.72-7.06-9.5-13.46-10.05 0-2.56.86-4.38 1.4-6.37 3.14 4.29 7.19 9.58 13.37 10.94-2.74-8.58-7.07-14.76-6.15-22.25 2.58-3.93 4.74-9 4.65-14.55 4.73-8.51 7.84-17.66 7.17-27.52 1.57-2.83 1.12-5.66-.57-8.15-1.02-1.4-1.48-2.75-1.26-4.03.76-1 1.96-1.83 2.74-2.11 1.78-.26 2.89.68 3.83 2.24 3.99 7.03 3.77 15.59-.02 22.84.04 2.3-.31 4.11-.91 5.66Z" style="fill:#c76f4b"/><path d="M172.98 192.45c.59 2.6 1.86 5.03 3.34 7.35-1.7.27-3.39-.82-3.76-2.91l-12.16-9.57 2.1-6.92c4.89 2.72 7.87 7.21 10.48 12.05" style="fill:#bb6d4f"/><path d="M212.02 204.53c4.73-8.51 7.84-17.66 7.17-27.52 1.57-2.83 1.12-5.66-.57-8.15-1.02-1.4-1.48-2.75-1.26-4.03-2.94.43-5.91 1.02-8.62 2.2-1.06.26-2.08.7-2.95 1.4-2.05.17-4.12.73-5.64 2.17-.22 1.9-.33 4.11 1.87 5.16 2.05-2.44 4.59-2.72 6.19-1.76 2.7 1.23 3.35 4.28 1.83 6.98.91 3.41 0 6.06-2.2 8.66-3.95 3.81-6.07 8.49-6.27 13.95-2.23 5.81-5.54 10.88-11.12 12.8l9.68 14.01c3.14 4.29 7.19 9.58 13.37 10.94-2.74-8.58-7.07-14.76-6.15-22.25 2.58-3.93 4.74-9 4.65-14.55Z" style="fill:#f6915a"/><path d="M181.77 1.15c.36.65 1.2 1.21 2.47 1.19l11.08-.17c9.18 3.59 18.91 5.78 29.22 6.76l13.25 2.58c8.17.87 15.94 2.52 22.63 6.39l-1.9.38c-5.59-2.48-12.06-.51-18.12 1.73-6.12.86-11.78 4.09-15.06 8.69h-1.62c-3.48-.85-6.25 1.26-8.65 4.83-.94-3.49.34-6.05 3.98-7.65 1.57-.82 1.14-2.49-.96-1.84-.53-.98-1.74-1.62-3.21-.99-12.09 5.95-24.41 10.59-37.79 13.24-4.21-.43-7.94.19-10.97 3.43 7.03-1.36 12.56-2.14 19.43-1.17 2.49-2.27 5.39-2.93 8.53-1.34l10.63-4.93c-1.01 4.16-4.45 7.19-9.46 5.92-5.34 2.17-11.2 2.82-14.98 6.78 1.94 1.75 3.25 2.27 4.57 3.17.85.75.94 2.22-.11 3.35l-12.01.32c-1.56 2.3-3.68 2.06-5.31.99-5.24-.69-10.39-.17-15.42 1.31.56-2.16 1.7-4.14 3.24-6.35-1.88-3.03-1.24-5.86 1.69-7.89-3.37-.53-4.92 1.31-7.08 2.03-.31-2.11 1.43-3.44 3.36-4.59 3.9-1.87 6.5-4.58 8.35-8.47 5.33-1.84 9.88-4.13 13.45-8.45l20.98-4.36c-2.42-6.19-7.81-6.43-12.62-3.54-5.47-.36-10.58.73-15.05 3.79-3.03 3.28-7.22 3.96-10.98 2.77.7-.93 1.32-1.72 3.16-2.84-1-1.76-2.79-1.79-4.58-.28-2.63 1.4-5.21 2.84-7.7 1.93 3.88-3.83 9.36-5.42 14.2-8.59 2.64-2.64 5.59-4.43 9.25-5.29 2.1-.56 3.61-1.7 4.25-3.3l5.84.44Zm10.56 7.24c-4.28-2.82-7.49-.52-10.46.65 3.77.65 6.85 1.31 10.46-.65" style="fill:#182b7c"/><path d="m129.03 9.64 4.14.07c-2.75 2.34-5.96 3.73-9.91 2.2-4.19 5.66-1.2 11.24.99 16.73-.31 1.69.39 2.77.35 5.81-3.43-3.1-5.55-4.81-7.7-8.2.39-1.32.06-2.62-.66-3.23-.85-.09-1.78.21-2.44.65-.16.71-.16 1.38-.07 2.4 3.81 4.94 4.41 10.85 3.01 16.35 1.2 2.63 1.81 4.68 3.94 4.12 2.75.05 5.55-.39 8.17-1.19l7.36-1.3c4.71.33 9.55.24 13.64-2.12 2.16-.72 3.71-2.56 7.08-2.03-2.93 2.03-3.57 4.86-1.69 7.89-1.53 2.21-2.68 4.18-3.24 6.35l-3.78.87c-5.79 1.27-11.5 3.5-16.76 6.25-5.36.86-10.65 3.04-14.55 6.78-2.23 2.87-5.26 4.66-8.34 6.41-.78.14-1.68.34-2.77.95-8.21 6.49-18.59 10.06-27.91 8.24.09-8.4.84-14.28 6.99-18.47 2.3-4.46 3.85-9.28 4.9-14.32 1.06-4.09 4.26-7.13 8.3-8.06 3.03-.1 4.73-2.04 5.73-4.3 1-7.76 5.81-14.16 13.18-18.26.95-6.75 5.77-11.94 12.05-10.59Z" style="fill:#515ca4"/><path d="M175.92.71c-.65 1.6-2.15 2.74-4.25 3.3-3.65.86-6.61 2.65-9.25 5.29-4.84 3.18-10.32 4.76-14.2 8.59-4.38 1.89-8.06 5.33-10.63 9.86-4.69 5.16-7.99 11.11-8.75 17.6-2.62.81-5.42 1.24-8.17 1.19-1.33-.61-2.14-2.21-.68-3.18 1.46 1.11 2.62 1.29 3.57 1.41.73-.68 1.07-1.43.67-2.74-2.71-1.25-4.17-3.7-2.81-6.24 2.29-.07 3.84-1.23 4.12-2.79.24-1.6-.23-3.22-1.3-4.35-2.19-5.48-5.18-11.07-.99-16.73 3.95 1.53 7.16.14 9.91-2.2 1.82-2.79 4.6-5.11 8.35-3.01 2.76.95 5.39-.07 6.84-2.04l4.67-2.3c4.13-.1 8.41-.7 12.22-2.37z" style="fill:#091453"/><path d="M142.51 65.01c2.25 3.78.34 8.34-3.56 11.1-3.92 2.96-8.48 4.91-11.82 9.42 3.44 3.64 8.37 2.53 12.59.78 9.78-.91 18.69-2.53 27.76-6.92 1.32 4.25-.07 8.03-.95 12.21.57 3.91-.73 7.09-2.95 10.23 1.75 1.29 2.48 2.45 2.93 3.37 0 1.49-.9 2.59-2.6 3.09-6.46 1.03-12.17 3.56-16.96 7.21l-7.1 3.57c-1.17.67-2.58 1.29-4.56 1.08l-9.99-2.34c.11-1.7-.94-3.27-2.89-4.22-3.78-2.76-7.87-5.19-9.54-9.85-4.45-3.65-6.33-9.04-8.16-14.41-4.09-1.54-6.93.75-9.36 3.16-1.1.2-2.15.16-3.05-.5-.07-.62.1-1.38.49-2.03l5.43-2.85c1.87-.15 3.33-.92 3.96-2.82.26-.81.22-2.45-.71-3.68 2.48-1.86 5.66-3.23 7.09-6.13 3.08-1.75 6.1-3.55 8.34-6.41-.12 1.18.98 1.75 1.97 1.16l4.68-2.37c6.36.21 12.78-.53 18.95-1.82Zm-25.48 12.57c.26-2.27-.47-3.03-1.2-3.72-.48-.2-1.15-.41-2.3-.3-2.42 2.14-3.84 4.7-3.9 7.99 3.18-.52 5.29-1.78 7.41-3.98Z" style="fill:#29150f"/><path d="M55.33 91.23c1.69.35 3.58-.14 5.36.81-4.25 2.36-8 3.52-11.26 7.14l10.93 6.64c-.27 2.64-.04 5 1.18 6.58 1.46 1.21 3.31 2.21 5.87 1.86l7.97-6.6c-.41-1.54-.32-2.7-.19-3.44.78-1.18 2.28-2.12 4.21-.81l12.21-7.39c1.62 2.86 2.14 5.5 2.16 8.69.02 1.39.79 2.21 1.64 2.51l.91 8.11c-1.95 3.59-1.18 8 .51 12.22-1.09 6.42-5.9 10.22-11.85 12.28-2.63 2.92-6.8 4.71-9.94 2.96 4.17-4.29 8.26-8.74 12.04-13.91 3.08-2.43 5.39-5.71 4.5-10.34-7.96 1.47-14.62 5.02-21.73 9.6-4.21-3.1-8.15-5.21-13.22-6.62l-7.31 3.66c-.47-1.46-.53-2.47-.74-3.38.09-.99-.82-2.05-1.92-1.24-.94-3.93-3.71-7.42-6.73-10.05l.25-4.91 3.5-5.82c3.87-3.04 6.74-7.45 11.65-8.57Z" style="fill:#281b17"/><path d="M89.17 85.34c.4 2.11 1.93 3.56 3.63 4.59-.38.66-.56 1.41-.49 2.03.9.66 1.95.7 3.05.5-1.1 2.38.66 4.67 1.48 6.89-1.44 2.45-1.67 5.22-1.44 7.89-.85-.3-1.62-1.12-1.64-2.51-.01-3.19-.54-5.83-2.16-8.69l-12.21 7.39c-1.92-1.31-3.42-.37-4.21.81-.12.74-.22 1.9.19 3.44l-7.97 6.6c-2.56.35-4.42-.65-5.87-1.86-1.22-1.58-1.46-3.95-1.18-6.58L49.42 99.2c3.26-3.63 7.01-4.78 11.26-7.14-1.78-.95-3.67-.47-5.36-.81 3.39-2.01 7.44-3.62 11.38-3.78-.09 1.8-1.56 2.54-4.25 3.26 3.3 1.5 6.84 1.99 9.83 4.56.11 1.32.48 2.33.86 3.22 1.29.01 2.44-.67 3.04-2.15.49-.58.9-.97 1.72-1.25-.12.09.71-.65 1.28.36-.03.33-.15 1.23-.06 2.1 3.29-1.11 4.52-2.94 5.38-5.02l5.88-1.39c-1-2.75-3.36-3.53-5.66-3.58-1.47-1-3.37-.64-5.2-1.7 3.73-1.18 6.71-.35 9.63-.53Z" style="fill:#423a32"/><path d="M84.74 87.57c2.3.05 4.66.83 5.66 3.58l-5.88 1.39-7.25 1.4c-2.89.43-4.81-1.27-4.9-3.51-.19-1.7-.17-3.4 1.61-5.26 3.45 1.96 7.12 2.82 10.75 2.4Z" style="fill:#f7f0d1"/><path d="M72.37 90.43c.09 2.23 2.01 3.93 4.9 3.51l7.25-1.4c-.86 2.08-2.09 3.91-5.38 5.02-.09-.87.03-1.77.06-2.1-.57-1.01-1.4-.27-1.28-.36-.82.28-1.24.67-1.72 1.25-.6 1.48-1.75 2.16-3.04 2.15-.38-.89-.75-1.9-.86-3.22-2.99-2.57-6.53-3.05-9.83-4.56 2.68-.72 4.15-1.47 4.25-3.26 2.33-.25 4.17 1.29 5.66 2.97Z" style="fill:#7d6d52"/><path d="M92.79 89.93c-1.69-1.03-3.23-2.47-3.63-4.59 4.22-1.64 8.47-2.44 12.31-4.77.93 1.24.97 2.87.71 3.68-.64 1.9-2.09 2.67-3.96 2.82l-5.43 2.85Z" style="fill:#8a6e4b"/><path d="m135.77 148.73 7.67.38 3.61.1c.1.57.06 1.17-.05 1.67-.5.45-1.22.77-2.26.72l-8.53-.06-12.21-.19c-5.2 2.74-10.67 3.85-16.6 4.93-1.75 3.44-4.69 4.33-8.13 3.05-5.54-1.48-11.69-1.43-16.03 1.84-3.86 3.6-3.87 8.81-2 13.51-.73-.01-1.81.61-.95 1.36l-4.36-4.36c-.05-2.74.65-5.55-.42-8.33-1.25 2.26-.81 4.01-.72 6.3-3.72-.65-5.64-3.53-5.86-6.47 1.67.24 3.37-.49 4.66-2.16 2.46-2.19 5.62-2.77 8.98-2.77 6.24-3.22 12.72-3.85 19.36-4.49l19.76-5.01c5.11.32 9.68.65 14.08 0Z" style="fill:#4b333b"/><path d="M46.66 120.58c-.1 4.65 3.6 7.56 8.79 8.14 1.16 4.77 3.5 8.38 8.69 7.98l6.27 7.51v1.55l-1.65-1.14c-.37-1.08-1.55-1.8-3.19-1.31-4.73 2.04-9.78.13-11.5-4.65-.18-2-1.27-3.26-2.52-3.98l-6.5-12c.12-2.16-.21-4.63-2.34-6.43-1.78-1.67-2.61-3.72-2.79-5.73 3.02 2.63 5.79 6.12 6.73 10.05Z" style="fill:#66412f"/><path d="M282.84 27.06c-1.18 2.17-4.06 1.89-6.18.73-1.79-.21-2.97 0-4.13.53-.42 1.17-.03 2.74 1.4 3.56 1.53 3.53 3.83 5.85 7.82 6.61.92 2.72 2.48 4.85 5.2 5.69 4.24.34 7.51 2.23 10.28 5.36 3.17.49 5.76 1.66 7.65 4.1.86.42 1.25 1.27 1 2.17-.14.24-.67 1.01-1.86.86-.28-.33-.62-1.07-.62-1.76-10.35-5.66-22.29-8.13-34.95-6.5-5.44-2.42-10.68-3.57-16.72-2.7-2.75-1.54-5.86-2.08-7.7 1.25 3.67 1.26 6.53.75 9.95 3.44-.91 2.97-3.83 2.77-6.15 2.68l-53.76-.28c-3.33-.9-6.39-1.54-9.33-1.26 1.05-1.14.96-2.61.11-3.35-1.32-.9-2.63-1.41-4.57-3.17 3.78-3.96 9.64-4.61 14.98-6.78 5.01 1.27 8.45-1.76 9.46-5.92 3.51-3.91 8.16-7.27 13.37-8.25 2.1-.65 2.54 1.02.96 1.84-3.64 1.6-4.92 4.16-3.98 7.65 2.4-3.57 5.17-5.68 8.65-4.82-.89 2.61-3.37 4.07-5.63 6.91 5.24.66 10.25-1.33 14.97-4.07 6.45-1.94 12.93-2.68 19.92-2.74 6.7.24 13.35-2.52 16.94-7.43 4.45 1.1 9.42 2.72 12.92 5.68Z" style="fill:#041864"/><path d="M282.84 27.06c2.41.96 4.52 2.65 6.52 5.05 6.15 2.31 11.48 5.64 16.2 10.22l6.53 14c2.87.21 5.7-.11 8.23 1.14l2.28 7.46c5.01 8.46 7.79 18.7 4.78 28.82 4.27 9.54 3.31 19.76.18 28.88-2.23 1.2-4.86.44-7.26-.03-1.46-2.56-.51-5.4 2.23-7.38 1.12-1.38 2.01-2.67 2.3-4.06-.27-1.64-1.38-3.18-3.12-4.36-2.25-1.24-3.95-2.88-3.81-6.19 2.38.41 4.26.28 5.78-1.07-.82-2.86-2.71-4.47-4.91-7.07 2.06-1.99 3.78-3.71 4.01-5.43.27-2.95-.66-5.39-2.74-7.47-2.45-1.83-3.94-4.23-4.71-7.26l-10.61-10.14c-.26-3.65-2.6-5.36-4.88-7.34l3.55.07c0 .69.34 1.43.62 1.76 1.19.15 1.72-.62 1.86-.86.25-.9-.14-1.74-1-2.17-1.89-2.43-4.48-3.61-7.65-4.1-2.77-3.13-6.04-5.03-10.28-5.36-2.72-.84-4.28-2.97-5.2-5.69-3.98-.76-6.29-3.08-7.82-6.61-1.43-.82-1.82-2.39-1.4-3.56 1.16-.53 2.34-.74 4.13-.53 2.12 1.16 4.99 1.44 6.18-.73Z" style="fill:#132774"/><path d="M269.93 21.37c-3.59 4.91-10.24 7.67-16.94 7.43-6.99.06-13.46.8-19.92 2.74-4.72 2.74-9.73 4.73-14.97 4.07 2.26-2.84 4.74-4.3 5.63-6.91h1.62l8.86-.59c5.58-2.92 11.17-5.26 17.5-6.42 3.26.63 5.86-.95 6.82-3.42l1.9-.38 9.51 3.48Z" style="fill:#030a3b"/><path d="M184.74 51.51c2.94-.28 6 .36 9.33 1.26l53.76.28c1.91 2.19 5.25 2.3 8.51 2.03 3.2 3.1 6.67 3.27 11.04 2.36-.38 1.82-1.67 2.15-2.4 2.92-.12-.13-.53-.12-.78.08-3.7-.73-7.5-.18-11.22 2-4.26-.3-8.09.13-12.16 1.38-5.19-1.47-10.7-2.63-15.64-.37l-25.82 8.29c2.09 4.3 3.12 8.13 2.08 12.29 1.11 3.82 1.35 8.01-.98 11.25-1.83.36-3.22 1.05-4.08 1.51-1.71 1.25-2.01 3.07-.8 5.04 3.24-.3 6.81-.83 9.38 2.3l-15.35.72c-4.12.43-7.61 1.72-8.43 6.06-4.83 3.54-9.72 6.24-14.89 8.09l-11.06.92c-5.03-.27-10.58 2.01-15.38-.89l7.1-3.57c8.17-1.31 16.67-3.84 23.99-8.79 7.67-3.3 14.33-7.59 21.12-12.45 3.05-1.55 5.4-4.05 6.26-6.58.98-3.52-.39-7.17-2.48-10.24-.09-5.97-3.17-9.06-8.14-11.06-3.54-5.93-9.34-10.23-16.81-10.76-1.74-.64-2.94-1.54-3.47-2.78 1.63 1.07 3.74 1.3 5.31-.99l12.01-.32Z" style="fill:#0d1227"/><path d="M149.85 41.92c-4.09 2.36-8.92 2.45-13.64 2.12 3.84-2.65 6.14-6.17 5.95-12.16 1.75 1.19 1.82 2.28 3.02 4.26l5.45-8.62c1.28-3.82 3.95-6.31 6.71-8.44 3.77 1.19 7.95.51 10.98-2.77 4.47-3.06 9.58-4.15 15.05-3.79 4.82-2.89 10.21-2.66 12.62 3.54l-20.98 4.36c-3.58 4.32-8.13 6.61-13.45 8.45-1.85 3.9-4.45 6.6-8.35 8.47-1.93 1.15-3.67 2.48-3.36 4.59Z" style="fill:#060f50"/><path d="M157.34 19.08c-2.76 2.13-5.44 4.63-6.71 8.44l-5.45 8.62c-1.2-1.99-1.27-3.07-3.02-4.26.19 5.99-2.11 9.51-5.95 12.16l-7.36 1.3c.76-6.49 4.05-12.43 8.75-17.6 2.57-4.52 6.25-7.96 10.63-9.86 2.49.91 5.06-.53 7.7-1.93 1.78-1.51 3.58-1.48 4.58.28-1.84 1.12-2.46 1.91-3.16 2.84Z" style="fill:#354699"/><path d="M167.42 52.82c.53 1.24 1.73 2.14 3.47 2.78 7.46.53 13.27 4.83 16.81 10.76-2.61-.19-5.56-.78-8.08-2.92l-13.36-5.9-11.9 2.5c-.2-.81-.73-1.41-1.3-1.65-.88-.14-1.72-.08-2.76.36-1.49.15-2.49-.5-3.34-1.71.52-.52.98-1.21 1.27-2.04l3.78-.87c5.03-1.48 10.18-2 15.42-1.31Z" style="fill:#2d2f3d"/><path d="M218.1 24.04c-5.21.99-9.86 4.35-13.37 8.25l-10.63 4.93c-3.14-1.59-6.05-.94-8.53 1.34-6.87-.97-12.41-.19-19.43 1.17 3.03-3.25 6.75-3.87 10.97-3.43 13.38-2.66 25.7-7.3 37.79-13.24 1.47-.63 2.68 0 3.21.99Z" style="fill:#354a99"/><path d="M258.51 18.28c-.96 2.46-3.56 4.05-6.82 3.42-6.32 1.16-11.92 3.5-17.5 6.42l-8.86.58c3.28-4.6 8.93-7.82 15.06-8.69 6.06-2.24 12.53-4.2 18.12-1.73" style="fill:#041864"/><path d="M192.33 8.39c-3.61 1.96-6.68 1.3-10.46.65 2.97-1.18 6.17-3.47 10.46-.65" style="fill:#060f50"/><path d="M148.22 55a5.34 5.34 0 0 1-1.27 2.04c.85 1.21 1.85 1.86 3.34 1.71 1.04-.44 1.89-.5 2.76-.36.58.24 1.1.84 1.3 1.65L142.5 65c-6.17 1.3-12.6 2.03-18.95 1.82 3.17-1.03 6.21-2.62 7.91-5.58 5.27-2.74 10.97-4.98 16.76-6.25Z" style="fill:#57555d"/><path d="M124.26 28.64c1.06 1.13 1.53 2.75 1.3 4.35-.28 1.56-1.83 2.72-4.12 2.79-1.36 2.53.11 4.98 2.81 6.24.4 1.31.07 2.07-.67 2.74-.96-.12-2.11-.3-3.57-1.41-1.46.97-.65 2.57.68 3.18-2.13.56-2.74-1.5-3.94-4.12 1.4-5.5.8-11.41-3.01-16.35-.09-1.02-.09-1.68.07-2.4.66-.44 1.59-.74 2.44-.65.72.62 1.05 1.92.66 3.23 2.15 3.4 4.28 5.1 7.7 8.2.04-3.04-.66-4.12-.35-5.81Z" style="fill:#1b2973"/><path d="M131.46 61.25c-1.7 2.96-4.73 4.55-7.91 5.58l-4.68 2.37c-.99.59-2.08.02-1.97-1.16 3.9-3.74 9.19-5.92 14.55-6.78Z" style="fill:#98909d"/><path d="M187.7 66.37c4.97 2.01 8.05 5.1 8.14 11.06 2.09 3.07 3.46 6.72 2.48 10.24-.85 2.54-3.21 5.04-6.26 6.58-6.8 4.86-13.45 9.15-21.12 12.45-7.32 4.95-15.82 7.48-23.99 8.79 4.79-3.65 10.51-6.18 16.96-7.21 1.7-.5 2.61-1.6 2.6-3.09-.46-.93-1.18-2.08-2.93-3.37 2.22-3.14 3.52-6.32 2.95-10.23.88-4.18 2.27-7.96.95-12.21-9.07 4.4-17.98 6.02-27.76 6.92-4.22 1.75-9.16 2.86-12.59-.78 3.34-4.51 7.9-6.46 11.82-9.42 3.9-2.76 5.81-7.32 3.56-11.1l11.85-4.96 11.9-2.5 13.36 5.9c2.52 2.14 5.47 2.74 8.08 2.92Z" style="fill:#0d060a"/><path d="M139.85 119.06c4.8 2.9 10.34.62 15.38.89.94-.07 2.09.26 2.67 1.58.21 2.58 1.37 4.39 3.28 5.98-1.73 5.22-1.07 10.19.93 15.87l-18.66 5.72-7.67-.38c1.55-2.35 4.33-2.1 7.15-2.42-2.04-2.65-3.33-4.06-4.91-4.55-2.25.17-4.22 1.05-7.02 2.62-1.83-2.44-.69-5.53 1.01-9.29-4.27-.72-7.6.89-11.37-3.31 3.94-1.72 7.24-3.11 11.14-6.04-2.63-2.44-5.38-4.73-6.46-7.95l9.99 2.34c1.98.21 3.39-.4 4.56-1.08Z" style="fill:#41467f"/><path d="M125.3 117.79c-3.71-1.23-6.26-4.63-9.74-7.85-4.82 2.1-6.34 7.11-8.13 11.6-1.72 6.23-4.58 11.61-9.45 15.81-5.49 3.45-11.31 5.73-17.52 7.77-3.43 1.39-7.06 1.86-10.06.63v-1.55c1.7.69 3.73.28 4.63-1.4 3.13 1.75 7.31-.04 9.94-2.96 5.95-2.06 10.76-5.86 11.85-12.28-1.7-4.22-2.46-8.64-.51-12.22 3.06.79 6.03-.04 8.78-2.39 1.61-.02 2.91-.76 3.53-1.81-.15-1.21-.83-2.34-1.91-3.54-1.73-4.26-5.66-8.32-9.88-8.26-.82-2.22-2.58-4.51-1.48-6.89 2.43-2.41 5.27-4.69 9.36-3.16 1.83 5.37 3.71 10.76 8.16 14.41 1.67 4.66 5.76 7.09 9.54 9.85 1.95.95 3 2.52 2.89 4.22Z" style="fill:#1d1735"/><path d="M117.03 77.58c-2.12 2.2-4.23 3.46-7.41 3.98.06-3.3 1.49-5.86 3.9-7.99 1.15-.11 1.82.09 2.3.3.73.69 1.47 1.45 1.2 3.72Z" style="fill:#6a5d53"/><path d="M75.04 142.81c-.9 1.68-2.93 2.09-4.62 1.4l-6.27-7.51c-5.2.39-7.54-3.21-8.69-7.98-5.19-.58-8.89-3.5-8.79-8.14 1.1-.81 2.01.25 1.92 1.24.21.92.28 1.93.74 3.38l7.31-3.66c5.07 1.41 9.01 3.52 13.22 6.62 7.1-4.58 13.77-8.13 21.73-9.6.89 4.63-1.42 7.91-4.5 10.34-3.78 5.17-7.87 9.62-12.04 13.91Z" style="fill:#442619"/><path d="m96.31 115.35-.91-8.11c-.24-2.67 0-5.44 1.44-7.89 4.22-.07 8.14 4 9.88 8.26 1.08 1.2 1.76 2.32 1.91 3.54-.62 1.05-1.92 1.79-3.53 1.81-2.75 2.35-5.72 3.18-8.78 2.39Z" style="fill:#05030c"/><path d="M125.3 117.79c1.08 3.22 3.83 5.5 6.46 7.95-3.9 2.93-7.2 4.32-11.14 6.04 3.78 4.2 7.1 2.59 11.37 3.31-1.71 3.77-2.84 6.85-1.01 9.29 2.8-1.57 4.77-2.45 7.02-2.62 1.59.49 2.88 1.89 4.91 4.55-2.81.32-5.6.07-7.15 2.42-4.4.66-8.97.33-14.08 0l-19.76 5.01c-6.64.64-13.12 1.28-19.36 4.49-3.36 0-6.52.59-8.98 2.77-1.29 1.68-2.99 2.4-4.66 2.16.62-3.83-1.42-7.27-3.18-11.06-.46-1.97-.72-3.43-.04-5.47.09-.96 1.16-2.63 3.06-2.02l1.64 1.14c3 1.23 6.63.76 10.06-.63 6.21-2.04 12.03-4.32 17.52-7.77 4.87-4.2 7.73-9.59 9.45-15.81 1.79-4.49 3.31-9.5 8.13-11.6 3.48 3.22 6.03 6.62 9.74 7.85" style="fill:#51568e"/><path d="m166.29 119.03 27.51.03c2.16 0 3.94 1.13 3.95 2.94-.01 1.21-1.01 2.44-2.56 3.07-5.54 1.88-8.89 6.17-9.37 12.11-2.74 1.44-5.27 2.68-6.28 4.93-2.16-.36-4.51-.05-6.57 1.73-2.98 1.14-5.74 1.25-9.04.44.15 1.45 1.08 1.63 1.59 2.15-3.83-.05-7.69.25-11.2 2.93l-7.26-.16-3.61-.1 18.66-5.72c-2-5.68-2.66-10.65-.93-15.87-1.9-1.59-3.07-3.4-3.28-5.98-.57-1.32-1.73-1.65-2.67-1.58z" style="fill:#242b64"/><path d="m303.4 54.9-3.55-.07c-4.44-.27-8.78 1.36-11.93 5.12-4.45.44-8.11.14-12.32-1.25-3.75.59-7.1 2.82-10.61 1.68.73-.77 2.02-1.1 2.4-2.92-4.37.91-7.85.75-11.04-2.36-3.27.27-6.6.16-8.51-2.03 2.31.09 5.24.29 6.15-2.68-3.42-2.69-6.28-2.18-9.95-3.44 1.84-3.33 4.95-2.79 7.7-1.25 6.04-.87 11.28.28 16.72 2.7 12.66-1.63 24.6.84 34.95 6.5Z" style="fill:#061251"/><path d="M299.85 54.83c2.28 1.98 4.62 3.68 4.88 7.34l10.61 10.14c.77 3.03 2.26 5.43 4.71 7.26 2.07 2.08 3.01 4.52 2.74 7.47-.23 1.72-1.96 3.44-4.01 5.43 2.2 2.6 4.1 4.22 4.91 7.07-1.52 1.35-3.41 1.48-5.78 1.07-.15 3.3 1.56 4.95 3.81 6.19 1.74 1.18 2.85 2.72 3.12 4.36-.29 1.39-1.18 2.68-2.3 4.06-2.74 1.98-3.69 4.82-2.23 7.38-2.01.37-4.05-.36-5.62-2.23-.31-1.6 1.2-3.75 3.17-5.1 2.94-.67 4.15-3.05 3.16-4.95-9.42-3.44-17.57-3.4-27.43-3.21.91-1.92 3.31-1.72 4.98-1.32 2.94.36 3.53-1.13 3.66-3.03.22-1.28-.43-2.75-2.63-2.95-3.67-.03-8.77.53-10.25-3.96 10.81 1.63 19.31 3.83 30.04 3.38-3.71-5.99-9.37-10.33-16.43-9.34-4.26-2.5-8.57-4.31-13.28-4.1-3.63 1.04-7.09.11-8.67-3.32 2.77-2.34 6.09-3.5 9.97-3.44 4.45-1.78 8.74-2.64 13.56-1.94 1.61-.67 2.2-1.84 2.61-3.05-.69-.69-1.49-1.25-2.5-2.1-8.85-3.29-17.87-5.35-27.32-5.95-4.48 1.51-8.76 2.59-13.28 2.69-4.04-2.26-8.44-1.33-10.8 2.32-.54-3.36.23-6.04 1.73-8.78 3.84.72 7.18.57 9.22-1.75.26-.2.66-.21.78-.08 3.51 1.14 6.86-1.09 10.61-1.68 4.21 1.39 7.87 1.69 12.32 1.25 3.15-3.76 7.49-5.39 11.93-5.12Z" style="fill:#041864"/><path d="M264.21 60.45c-2.05 2.32-5.38 2.47-9.22 1.75-1.5 2.74-2.27 5.42-1.73 8.78 2.36-3.65 6.76-4.58 10.8-2.32 4.51-.11 8.79-1.18 13.28-2.69 9.45.6 18.47 2.66 27.32 5.95 1.01.85 1.81 1.41 2.5 2.1-.42 1.21-1.01 2.38-2.61 3.05-4.82-.7-9.12.17-13.56 1.94-3.88-.05-7.2 1.1-9.97 3.44 1.58 3.43 5.05 4.37 8.67 3.32 4.71-.21 9.02 1.6 13.28 4.1 7.06-.99 12.72 3.35 16.43 9.34-10.73.46-19.23-1.75-30.04-3.38 1.48 4.5 6.57 3.93 10.25 3.96 2.2.2 2.85 1.67 2.63 2.95-.13 1.9-.72 3.39-3.66 3.03-1.67-.4-4.07-.6-4.98 1.32 9.86-.18 18-.23 27.43 3.21.99 1.9-.23 4.28-3.16 4.95-1.97 1.35-3.49 3.5-3.17 5.1 1.57 1.86 3.61 2.6 5.62 2.23-.63.95-1.46 1.67-2.38 2.26-4.03.64-7.53 3.22-10.48 6.51-3.83 1.07-6.88 3.46-11.12 3.48l-10.81 5.99c-2.52-2.67-5.31-2.45-8.42-1.27-5.27 1.7-10.13 3.09-15.76 2.28-.9.21-1.32.69-1.37 1.28l-10.61 1.05-25.28 3.78-8.27-1.38-13.97-4.25-22.31-.21c1.01-2.25 3.54-3.49 6.28-4.93.48-5.95 3.83-10.23 9.37-12.11 1.56-.64 2.55-1.86 2.56-3.07-.01-1.82-1.79-2.94-3.95-2.94l-27.51-.03c5.17-1.85 10.06-4.55 14.89-8.09.82-4.34 4.31-5.63 8.43-6.06l15.35-.72c-2.57-3.13-6.14-2.61-9.38-2.3-1.21-1.98-.91-3.79.8-5.04.86-.46 2.26-1.15 4.08-1.51 2.33-3.24 2.09-7.43.98-11.25 1.04-4.16 0-8-2.08-12.29l25.82-8.29c4.93-2.26 10.45-1.1 15.64.37 4.07-1.25 7.9-1.68 12.16-1.38 3.73-2.19 7.52-2.73 11.22-2Z" style="fill:#061251"/><path d="M94.25 181.48c-.03-4.41 3.06-6.45 7.68-6.88.86.94 1.06 2.53 1.56 3.83.45 1.82 1.86 3.02 3.39 3.15-10.26 3.39-12.63-.09-12.63-.09Z" style="fill:#fff"/></svg>